<?xml version="1.0" standalone="no"?>
<!DOCTYPE svg PUBLIC "-//W3C//DTD SVG 1.1//EN" "http://www.w3.org/Graphics/SVG/1.1/DTD/svg11.dtd" >
<svg xmlns="http://www.w3.org/2000/svg">
<metadata></metadata>
<defs>
<font id="tantafontregular" horiz-adv-x="1298" >
<font-face units-per-em="2048" ascent="1638" descent="-410" />
<missing-glyph horiz-adv-x="593" />
<glyph horiz-adv-x="2048" />
<glyph horiz-adv-x="2048" />
<glyph unicode="&#xd;" horiz-adv-x="593" />
<glyph unicode=" "  horiz-adv-x="593" />
<glyph unicode="&#x09;" horiz-adv-x="593" />
<glyph unicode="&#xa0;" horiz-adv-x="593" />
<glyph unicode="!" horiz-adv-x="569" d="M84 164q0 43 16.5 80t44 65.5t65.5 45t81 16.5q84 0 145 -62q31 -31 45.5 -68.5t14.5 -76.5t-14.5 -77t-45.5 -69q-59 -59 -145 -59q-43 0 -81 15.5t-65.5 43t-44 65.5t-16.5 81zM109 467v1008h364v-1008h-364z" />
<glyph unicode="&#x22;" horiz-adv-x="811" d="M70 971l45 504h258l-45 -504h-258zM438 971l45 504h258l-45 -504h-258z" />
<glyph unicode="#" horiz-adv-x="1200" d="M70 426l28 135h236l76 352h-236l29 136h235l88 417h136l-89 -417h187l88 417h135l-88 -417h235l-28 -136h-236l-75 -352h237l-29 -135h-237l-88 -418h-135l88 418h-187l-88 -418h-135l88 418h-235zM469 561h186l76 352h-186z" />
<glyph unicode="$" horiz-adv-x="1112" d="M0 188l133 297q18 -25 39 -45q68 -70 135.5 -108.5t129 -52t113.5 -3t87 38.5q57 49 56 110.5t-50 94.5q-16 10 -32.5 18.5t-37.5 14.5l-79 29l-39 14q-143 45 -237.5 121t-134.5 169t-23.5 198.5t90.5 209.5q61 86 142 134.5t173 56.5v174h266v-170q78 -10 146.5 -40 t134.5 -83l30 -25l-151 -272q-8 8 -15.5 14.5t-15.5 12.5q-94 76 -177 97t-144 -1q-33 -12 -53.5 -32.5t-28.5 -47.5t-3 -54.5t23 -51.5q18 -23 57 -42.5t138 -50.5q16 -4 29.5 -10t29.5 -10q406 -150 326 -528q-23 -102 -84.5 -186.5t-155.5 -139.5q-47 -29 -98 -43v-195 h-254v174q-117 2 -225.5 46.5t-208.5 136.5z" />
<glyph unicode="%" horiz-adv-x="1980" d="M45 1083q0 86 32 163t91 136q61 61 140 92t160 31t159 -30.5t139 -92.5q61 -61 93 -139t32 -160t-32 -159.5t-93 -139.5q-61 -61 -139 -91.5t-159 -30.5t-159 30.5t-139 91.5q-59 59 -92 136t-33 163zM313 1083q0 -68 47 -118q43 -47 106.5 -48.5t106.5 46.5 q47 51 48.5 119.5t-46.5 119.5q-45 47 -108.5 48t-106.5 -46q-47 -51 -47 -121zM457 39l811 1477l229 -125l-815 -1477zM1092 391q0 86 31.5 164t90.5 137q61 61 139.5 93t159 32t159.5 -31.5t140 -93.5q61 -61 92 -140t31 -160t-31.5 -158.5t-93.5 -139.5q-61 -61 -139 -92 t-157.5 -31t-157.5 31t-139 92q-59 59 -91 136t-34 161zM1360 393q0 -70 47 -121q43 -47 106.5 -47t108.5 47q47 51 47 121t-47 121q-43 47 -107.5 46t-107.5 -48q-47 -51 -47 -119z" />
<glyph unicode="&#x26;" horiz-adv-x="1515" d="M59 307q-39 162 35 303.5t256 229.5q10 4 21.5 9t23.5 9q-25 27 -49 62q-66 90 -82 182t11.5 173t97 141.5t178.5 88.5q119 29 237 11q88 -14 158 -50q80 -41 128 -105.5t62.5 -141t-8 -156.5t-86.5 -150q-43 -49 -129 -106q-8 -6 -16 -11t-18 -10l217 -241l188 184 l223 -213l-200 -201l147 -159l-250 -228l-182 203q-10 -8 -21.5 -16.5t-23.5 -14.5q-86 -55 -162 -85.5t-149 -43.5q-119 -18 -220.5 -0.5t-180.5 63.5t-132 116.5t-74 156.5zM409.5 495q-18.5 -69 26.5 -135q53 -78 140.5 -84t203.5 78q6 4 13.5 9.5t13.5 9.5l-244 284 l-20 -14l-29 -18q-86 -61 -104.5 -130zM610.5 1210.5q-22.5 -45.5 5.5 -100.5q6 -10 12.5 -20.5t12.5 -20.5l12 -18l17 -19l16 -18l16 -17q4 4 9.5 8.5t9.5 8.5q59 51 79.5 87t16.5 70q-6 47 -41 73t-88 20q-55 -8 -77.5 -53.5z" />
<glyph unicode="'" horiz-adv-x="442" d="M70 971l45 504h258l-45 -504h-258z" />
<glyph unicode="(" horiz-adv-x="602" d="M80 528q-23 209 0 418q23 256 94.5 480.5t194.5 428.5l221 -139q-86 -215 -131 -434q-31 -145 -45.5 -279.5t-14.5 -266.5t14.5 -266t45.5 -277q45 -219 131 -435l-221 -139q-123 205 -195 429t-94 480z" />
<glyph unicode=")" horiz-adv-x="604" d="M12 -242q76 180 122 374t65 435q12 170 0 336q-18 242 -64.5 436.5t-122.5 372.5l224 137q119 -195 190.5 -415t97.5 -488q20 -209 0 -418q-29 -279 -99.5 -498.5t-188.5 -410.5z" />
<glyph unicode="*" horiz-adv-x="931" d="M43 1067l61 258l242 -74l-12 248h264l-14 -252l241 76l64 -258l-240 -43l137 -199l-229 -137l-98 191l-107 -187l-223 146l145 188z" />
<glyph unicode="+" d="M125 623v295h352v360h344v-360h353v-295h-353v-359h-344v359h-352z" />
<glyph unicode="," horiz-adv-x="514" d="M18 -289l97 678l356 -51l-213 -662z" />
<glyph unicode="-" horiz-adv-x="669" d="M57 328v340h555v-340h-555z" />
<glyph unicode="." horiz-adv-x="495" d="M45 162q0 41 15.5 79t43.5 66q31 31 68 45.5t76 14.5t75.5 -15.5t67.5 -44.5q31 -31 45.5 -67.5t14.5 -76.5t-14.5 -77t-45.5 -68q-29 -31 -66.5 -45t-76.5 -14t-76 14.5t-68 44.5q-29 29 -44 66t-15 78z" />
<glyph unicode="/" horiz-adv-x="647" d="M25 0l350 1532l248 -57l-347 -1532z" />
<glyph unicode="0" d="M41 735q0 162 39 293t107.5 228.5t160.5 158t197 80.5q139 25 268 -15t227.5 -138.5t157.5 -252t59 -354.5t-59 -354.5t-157.5 -252.5t-227.5 -139t-268 -14q-104 18 -196.5 79t-161 158t-107.5 229t-39 294zM418 735q0 -113 18 -182q14 -53 29.5 -89t38.5 -63 q29 -37 66.5 -55t77.5 -18t79 18.5t68 54.5q20 29 36.5 64t28.5 88q10 35 15.5 80t5.5 102q0 55 -5.5 100.5t-15.5 79.5q-12 53 -28.5 89t-36.5 65q-29 37 -68 55.5t-79 18.5t-78 -18.5t-66 -55.5q-23 -29 -38 -63.5t-30 -87.5q-18 -72 -18 -183z" />
<glyph unicode="1" d="M260 0v295h223v885h-219v295h584v-1180l221 6v-301h-809z" />
<glyph unicode="2" d="M94 952q0 18 1 36t3 34q31 229 175.5 356t385.5 129q137 0 247 -45t181.5 -122.5t102.5 -181t10 -216.5q-12 -72 -48 -140.5t-105 -144.5q-25 -29 -54 -53l-22 -20l-94 -78l-259 -211l594 6v-301h-1116v231l467 406q16 14 29.5 26.5t28.5 26.5q131 131 172 212t26 142 q-14 59 -60 96.5t-116 39.5q-82 0 -130 -52.5t-48 -144.5q0 -20 2 -31h-373z" />
<glyph unicode="3" d="M74 477h372q2 -6 3 -20q10 -104 74.5 -155.5t166.5 -29.5q76 18 117 80q43 66 31 135q-14 72 -71.5 112t-154.5 30q-8 0 -14 -1t-12 -1v280q12 -4 22 -4q76 -6 126 29t67 98q8 35 0 67.5t-29.5 58.5t-55.5 42t-75 16q-72 2 -118 -38.5t-52 -114.5q-2 -6 -2 -21h-342 q2 14 3 26.5t3 27.5q25 166 141.5 275.5t296.5 131.5q205 25 349.5 -41.5t207.5 -193.5q37 -76 37 -155t-29.5 -145.5t-85 -114.5t-126.5 -63q33 -2 63 -12q84 -29 140.5 -95.5t77 -152.5t-1 -182t-93.5 -184q-86 -104 -229.5 -159.5t-323.5 -35.5q-432 49 -479 463 q-2 12 -3 24.5t-1 22.5z" />
<glyph unicode="4" horiz-adv-x="1300" d="M76 489l600 986h395v-936h150v-273h-150v-266h-352v266h-617zM430 539h289v372q0 41 6 88q6 57 25 113q-4 -12 -9.5 -23.5t-9.5 -21.5q-29 -68 -43 -100.5t-22 -44.5z" />
<glyph unicode="5" d="M94 133l92 287q47 -49 103 -84q80 -49 158.5 -62.5t144 0t115 51t71.5 93.5q43 109 -11 198t-187 117q-37 8 -82 7t-103 -13l-24 -6l-148 31l162 723h741v-299l-477 4l-53 -207q115 25 229 -10q135 -39 220 -133.5t110 -239.5q25 -139 -16 -261t-133.5 -209t-229.5 -129 t-305 -22q-86 12 -160 37q-76 27 -127 57.5t-90 69.5z" />
<glyph unicode="6" d="M76 504q0 69 24.5 148t74.5 172.5t134 213.5l355 510l278 -188l-311 -404q14 4 27.5 7.5t27.5 7.5q123 20 230.5 -18t181 -117.5t105.5 -194.5t5 -250q-31 -160 -146.5 -270.5t-297.5 -145.5q-106 -23 -213 -6q-180 25 -297 126.5t-160 269.5q-18 70 -18 139zM444 485 q4 -92 61.5 -146t145.5 -52q80 2 133.5 49t67.5 127q8 51 -4 97t-40 79t-69 51.5t-90 18.5q-82 0 -137 -49.5t-66 -131.5q-2 -10 -2 -21.5v-21.5z" />
<glyph unicode="7" d="M123 1180v295h1053v-263l-691 -1286l-317 154l614 1100h-659z" />
<glyph unicode="8" horiz-adv-x="1300" d="M100 487q23 111 90.5 186.5t165.5 100.5q-66 16 -116 64.5t-77.5 114t-28.5 144.5t34 156q53 117 172 183.5t309 66.5q193 0 310.5 -66.5t170.5 -183.5q35 -78 35 -156.5t-27.5 -145t-77.5 -113.5t-116 -64q96 -25 165 -99.5t89 -185.5q18 -94 -11.5 -192t-105.5 -178 q-57 -59 -140 -97t-204 -53q-88 -10 -174 0q-121 14 -204 52t-142 98q-76 80 -105.5 177t-11.5 191zM471 436q0 -20 6 -41q29 -117 141 -135q31 -6 64 0q111 18 141 135q10 43 4 80q-10 72 -57 114t-121 42q-72 0 -119 -42t-57 -114q-2 -10 -2 -19.5v-19.5zM489 1063 q4 -68 39 -109t95 -51q70 -10 119 24t63 97q16 82 -18.5 138.5t-102.5 68.5q-43 8 -80 -1t-62.5 -32.5t-40 -57.5t-12.5 -77z" />
<glyph unicode="9" horiz-adv-x="1300" d="M85 886q-13 89 5 185q18 98 67.5 178t122 137.5t168 90t207.5 32.5q154 0 275 -59t193.5 -158.5t92 -230.5t-27.5 -273q-12 -39 -27.5 -74.5t-36 -74.5t-50.5 -84t-70 -104l-365 -527l-279 187l314 405q-139 -47 -285 0q-82 27 -146.5 81t-104.5 127t-53 162zM444 971 q0 -10 1 -20.5t4 -20.5q10 -66 53 -109t110 -57q45 -6 86 2q66 16 106 62t48 118q6 51 -7.5 95t-41 77t-67.5 50.5t-87 17.5q-78 -2 -132 -48t-68 -128q-2 -10 -3.5 -19.5t-1.5 -19.5z" />
<glyph unicode=":" horiz-adv-x="563" d="M84 162q0 84 61 145q59 59 142.5 59.5t142.5 -59.5q31 -31 45 -67.5t14 -76.5t-14 -77t-45 -68q-59 -59 -142 -59t-143 59q-61 62 -61 144zM84 848q0 86 59 145q29 31 67 46.5t77 15.5t75.5 -14.5t67.5 -45.5t45 -67.5t14 -76.5t-14 -77t-45 -67q-59 -59 -142 -60.5 t-143 58.5q-61 61 -61 143z" />
<glyph unicode=";" horiz-adv-x="552" d="M45 -289l96 678l357 -51l-213 -662zM84 850q0 86 58.5 144.5t144.5 58.5q84 0 143 -60q31 -31 45 -67.5t14 -76.5t-14 -77t-45 -67q-29 -29 -66.5 -44.5t-78.5 -15.5q-43 0 -80 16.5t-63.5 44t-42 64.5t-15.5 80z" />
<glyph unicode="&#x3c;" horiz-adv-x="1001" d="M70 737l862 480v-293l-369 -187l369 -186v-293z" />
<glyph unicode="=" d="M139 416v276h1020v-276h-1020zM139 784v275h1020v-275h-1020z" />
<glyph unicode="&#x3e;" horiz-adv-x="1001" d="M70 258v293l368 186l-368 187v293l862 -480z" />
<glyph unicode="?" horiz-adv-x="1105" d="M4 1079q6 39 19 76q47 147 157.5 237.5t268.5 110.5q121 16 224 -5t183 -72.5t132 -127t71 -168.5q31 -156 -23.5 -272.5t-179.5 -183.5l-47 -25l-39 -18l-20 -10l-19 -11l-12 -6l-17 -8q-16 -10 -21 -21.5t-9 -33.5v-17v-57h-361v135q0 47 6.5 79t19.5 53.5t36.5 34.5 t60.5 24l29 8l24 8q8 2 14.5 4t14.5 6q55 25 90 47.5t56.5 47t30.5 53t12 65.5q2 49 -14.5 89t-45.5 65.5t-68.5 35t-84.5 1.5q-53 -12 -88 -51t-48 -105q-2 -8 -2 -15.5t-2 -15.5zM285 166q0 88 59 147q31 31 69 45.5t77.5 14.5t77.5 -15.5t69 -46.5t45 -68.5t14 -77.5 t-15 -78t-46 -69t-69 -45t-76.5 -14t-76.5 15.5t-69 45.5q-29 29 -44 67t-15 79z" />
<glyph unicode="@" horiz-adv-x="1626" d="M121 633q-25 262 72.5 457.5t302.5 312.5q131 78 280 96q178 23 327.5 -29.5t251 -158t144.5 -255t8 -321.5q-33 -160 -112.5 -265t-175.5 -146q-53 -23 -100.5 -22t-84.5 18.5t-60.5 48t-27.5 69.5q-2 15 0 27q-16 -33 -41 -68q-106 -133 -268 -67q-80 35 -129 128 t-41 240q2 16 3 35t5 35q18 125 74.5 223.5t132.5 151.5q55 37 110.5 49t103.5 2t85 -40t53 -75l17 99h106l-74 -424l-26 -166q-6 -43 -6 -84q2 -53 34.5 -80t75.5 -12q25 8 47.5 24.5t59.5 57.5q41 43 72.5 113.5t45.5 148.5q4 23 6.5 43t4.5 43q6 131 -39 237.5t-126 178 t-194.5 103.5t-246.5 11q-121 -16 -221.5 -78.5t-171 -158t-104.5 -218t-22 -264.5q4 -59 19.5 -112.5t38.5 -104.5q61 -133 161.5 -218t221.5 -116.5t254 -8t262 109.5q123 78 203 198l28 -120q-12 -16 -24.5 -30.5t-26.5 -29.5q-233 -252 -559 -252q-145 0 -271 49.5 t-223.5 136.5t-159 208.5t-75.5 269.5zM602 598q2 -78 25 -121q14 -31 40.5 -48t56.5 -22.5t60.5 4t53.5 33.5q23 23 41 57t47 111q10 27 19 63t18 83l6 37l12 69q6 35 7 63.5t-1 51.5q-2 35 -18.5 62.5t-42 43t-57 17.5t-64.5 -10q-53 -23 -91 -70t-73 -152q-8 -23 -14 -47 t-13 -51q-18 -98 -12 -174z" />
<glyph unicode="A" horiz-adv-x="1320" d="M-55 0l520 1475h391l520 -1475h-389l-86 274h-481l-88 -274h-387zM500 549h319l-117 371q-4 16 -10 34.5t-10 44.5q-12 55 -17.5 110.5t-5.5 111.5v-28q0 -41 -4 -83q-6 -56 -16 -111q-6 -25 -11 -44t-10 -35z" />
<glyph unicode="B" horiz-adv-x="1236" d="M82 0v1475h518q227 0 338 -63.5t147 -194.5q17 -62 17 -118q0 -55 -16 -105q-32 -100 -115 -160q-16 -10 -33.5 -20.5t-36.5 -16.5q27 -4 51 -13q68 -18 121 -61t86 -103q33 -58 43 -132q4 -26 4 -54q0 -49 -12 -102q-35 -158 -162 -245t-354 -87h-596zM459 295h141 q90 0 137 24.5t70 71.5q16 32 16 64q0 31 -14 63q-23 51 -70 74.5t-143 23.5h-137v-321zM459 909h110h25q68 8 101.5 36t43.5 81q2 10 2 19q0 14 -4 26q-10 49 -45 74.5t-104 32.5q-8 0 -14.5 1t-14.5 1h-100v-271z" />
<glyph unicode="C" horiz-adv-x="1320" d="M59 874q27 162 108 289t199 210q120 83 268 115q75 16 154 16q77 0 158 -15q205 -37 363 -174l-187 -271q-49 39 -108 64q-35 14 -78 25q-51 11 -99 11q-49 0 -97 -12q-92 -24 -162 -81.5t-109 -142.5q-35 -77 -35 -168v-19q2 -78 27.5 -145.5t71 -118.5t107.5 -85 t136 -46q35 -6 69 -6q59 0 115 18q90 28 162 90l183 -272q-139 -125 -324 -168q-103 -24 -200 -24q-61 0 -119 10q-150 24 -272 98.5t-206 197.5t-118 281q-19 89 -19 179q0 72 12 144z" />
<glyph unicode="D" horiz-adv-x="1374" d="M82 0v1475h485q215 0 382 -81t265 -222q100 -140 118 -328q3 -35 3 -71q0 -158 -67 -333q-78 -209 -252 -324.5t-418 -115.5h-516zM459 336h139q137 0 231.5 87t116.5 247q5 39 5 75q0 49 -9 93q-16 78 -56 138t-100.5 101t-134.5 56q-35 6 -67 6h-125v-803z" />
<glyph unicode="E" horiz-adv-x="1021" d="M82 0v1475h868v-295h-491v-267h428v-295h-428v-323h508v-295h-885z" />
<glyph unicode="F" horiz-adv-x="903" d="M82 0v1475h842v-295h-465v-267h405v-295h-405v-618h-377z" />
<glyph unicode="G" horiz-adv-x="1593" d="M59 879q20 121 72.5 223t129.5 181t176.5 131t215.5 75q91 17 176 17q133 0 252 -42q195 -67 330 -229q18 -23 34.5 -44.5t31.5 -45.5l-349 -170q-12 23 -27.5 44t-35.5 42q-68 72 -149 99q-55 19 -110 19q-26 0 -53 -5q-81 -13 -152 -66t-116 -145q-10 -20 -18 -41 t-12 -43q-25 -87 -25 -167q0 -14 1 -28q5 -92 38 -168t89 -129t128 -80q70 -27 135 -27h11q71 3 130.5 30.5t103.5 76.5t62 115q4 20 7 28h-359v308h776q4 -39 6 -78v-18q0 -30 -4 -60q-14 -182 -84.5 -325.5t-186.5 -236.5t-273 -131q-92 -23 -195 -23q-70 0 -145 11 q-156 23 -282 102t-209 198.5t-117 274.5q-17 82 -17 168q0 78 14 159z" />
<glyph unicode="H" horiz-adv-x="1388" d="M82 0v1475h377v-519h471v519h377v-1475h-377v623h-471v-623h-377z" />
<glyph unicode="I" horiz-adv-x="540" d="M82 0v1475h377v-1475h-377z" />
<glyph unicode="J" horiz-adv-x="866" d="M-41 100l160 283q8 -8 17 -16.5t20 -14.5l24 -18q37 -23 74 -26q7 -1 14 -1q29 0 52 11q30 12 51.5 36.5t27.5 59.5q4 16 6.5 35.5t2.5 60.5q2 14 2 27.5v27.5v910h374v-959q0 -55 -2 -100t-6 -82q-10 -106 -67.5 -189.5t-148.5 -129.5t-208 -49h-12q-111 0 -234 50 q-16 8 -33.5 16.5t-33.5 18.5q-43 20 -80 49z" />
<glyph unicode="K" horiz-adv-x="1288" d="M82 0v1475h377v-664l413 664h433l-465 -713l526 -762h-444l-463 707v-707h-377z" />
<glyph unicode="L" horiz-adv-x="894" d="M82 0v1475h377v-1139h440v-336h-817z" />
<glyph unicode="M" horiz-adv-x="1759" d="M27 0l180 1475h364l263 -746q10 -27 17 -65.5t17 -110.5q8 -63 13 -133v24.5t2 24.5q8 104 18 162.5t25 97.5l262 746h364l181 -1475h-369l-68 670q-4 37 -6 81t-2 101q0 68 6 135q-4 -33 -7 -63.5t-9 -65.5q-12 -63 -23.5 -104t-21.5 -72l-242 -682h-223l-242 682 q-4 8 -7 20.5t-8 32t-12 49t-18 74.5l-18 88l-8 41q4 -33 8 -66.5t8 -68.5q4 -76 5 -115v-15q0 -29 -3 -52l-78 -670h-368z" />
<glyph unicode="N" horiz-adv-x="1507" d="M82 0v1475h381l514 -746q6 -8 12 -18.5t14.5 -29.5t20.5 -49t31 -77l28 -72l17 -45l-8 37l-17 88q-16 82 -20 123t-4 70v719h374v-1475h-370l-533 766q-4 6 -9 15.5t-13 26.5t-20.5 45t-30.5 73q-12 31 -24.5 62.5t-23.5 64.5l11 -54l16 -79q10 -53 16.5 -85t9.5 -50.5 t4 -26.5t1 -15v-743h-377z" />
<glyph unicode="O" horiz-adv-x="1609" d="M47 735q0 74 12 146q25 141 90.5 256.5t163 197.5t222 126t270.5 44q143 0 268 -44t222.5 -126t163 -197.5t91.5 -256.5q12 -72 12 -145t-12 -146q-25 -141 -91 -257t-163.5 -198t-222.5 -125t-268 -43q-145 0 -270 44t-222.5 125t-163 197t-90.5 257q-12 73 -12 145z M430 735q0 -39 6 -76q14 -86 57.5 -152.5t102.5 -109.5t132 -59q36 -8 73.5 -8t75.5 8q111 23 192.5 107.5t104.5 213.5q6 38 6 76.5t-6 77.5q-16 86 -58.5 151.5t-103 108.5t-132.5 59q-39 9 -78 9q-34 0 -69 -6q-111 -23 -192.5 -109t-104.5 -213q-6 -41 -6 -78z" />
<glyph unicode="P" horiz-adv-x="1161" d="M82 0v1475h514q547 0 547 -475v-7q-2 -233 -126 -354t-366 -121h-192v-518h-377zM459 821h104q94 0 145.5 47t53.5 131q0 82 -51 129q-27 23 -58.5 33t-85.5 10h-108v-350z" />
<glyph unicode="Q" horiz-adv-x="1611" d="M52 626q-7 50 -7 101q0 82 16 168q25 121 78.5 222.5t131 178t178 128t217.5 69.5q75 12 145 12q128 0 243 -39q179 -59 303 -186t178 -310q31 -105 31 -219q0 -86 -18 -178q-23 -119 -79 -223t-142 -190l223 -205l-258 -221l-239 274q-63 -20 -121 -28q-71 -12 -140 -12 q-61 0 -120 10q-125 20 -230.5 74t-188.5 140.5t-134 196t-67 237.5zM430 735q0 -43 8 -78q16 -86 58.5 -151.5t103.5 -106.5q97 -68 204 -68q1 0 2 1q107 0 206 67q61 41 103 107.5t59 150.5q8 39 8 78t-8 78q-16 84 -58.5 150.5t-103.5 109.5q-98 66 -206 66t-206 -66 q-61 -41 -103 -107.5t-59 -152.5q-8 -33 -8 -78z" />
<glyph unicode="R" horiz-adv-x="1208" d="M82 0v1475h547q229 0 353 -83t161 -243q16 -66 16 -126q1 -28 -3 -54q-10 -84 -47.5 -149.5t-98 -113t-140.5 -71.5l-24 -6l399 -629h-438l-348 614v-614h-377zM459 807h92q92 0 143 38t68 107q7 30 7 57q-1 63 -39 107q-54 62 -167 64h-104v-373z" />
<glyph unicode="S" horiz-adv-x="1112" d="M0 188l133 297q18 -25 39 -45q68 -70 136 -108q66 -38 128 -52q35 -8 67 -8q25 0 47 4q52 10 87 39q56 48 56 108q0 63 -50 97q-16 10 -32.5 18.5t-37.5 14.5l-79 29l-39 14q-145 45 -238.5 121t-133.5 170q-28 67 -28 139q1 30 5 60q16 106 92 212q78 108 212 164 q100 41 225 42q43 0 89 -5q188 -18 334 -133l30 -25l-151 -272q-8 8 -15.5 14.5t-15.5 12.5q-94 76 -177 97q-41 10 -76 10q-37 0 -68 -11q-33 -12 -53.5 -32.5t-28.5 -47.5t-3 -54.5t23 -51.5q18 -23 57 -42.5t138 -50.5q16 -4 29.5 -10t29.5 -10q207 -76 287 -207 q53 -87 53 -200q0 -58 -14 -124q-23 -98 -76 -177t-135 -131t-188 -74q-65 -14 -137 -14q-45 0 -93 5q-127 14 -236.5 69.5t-191.5 147.5z" />
<glyph unicode="T" horiz-adv-x="966" d="M-31 1139v336h1028v-336h-325v-1139h-377v1139h-326z" />
<glyph unicode="U" horiz-adv-x="1349" d="M82 594v881h377v-850q0 -78 9 -131.5t29.5 -88t53.5 -53t82 -26.5q20 -3 41.5 -3t42.5 3q49 8 81.5 26.5t53 53t31 88t10.5 131.5v850h375v-881q0 -170 -47 -298t-137.5 -208t-223.5 -110q-71 -16 -153 -15q-73 0 -154 12q-244 35 -357.5 183.5t-113.5 435.5z" />
<glyph unicode="V" horiz-adv-x="1261" d="M-61 1475h407l246 -785q4 -14 8 -32.5t9 -49t9.5 -76t8.5 -108.5q2 -12 3 -24.5t1 -24.5q0 12 1 24.5t1 24.5q6 63 10 107t8 75t8.5 50.5t8.5 33.5l247 785h408l-532 -1475h-320z" />
<glyph unicode="W" horiz-adv-x="1970" d="M-41 1475h383l201 -789q4 -16 8 -36.5t7 -52.5t5 -77t4 -108v-50l6 50l11 92q10 84 16 121t12 59l203 791h342l201 -791q6 -23 12 -59.5t16 -120.5l13 -92l4 -50v58q4 119 10 178t14 88l201 789h383l-424 -1475h-362l-201 780q-8 29 -14 78t-15 160l-8 86l-2 49 q-2 -33 -4 -67.5t-6 -67.5q-6 -59 -10 -99t-7.5 -67t-6.5 -43t-5 -29l-201 -780h-360z" />
<glyph unicode="X" horiz-adv-x="1335" d="M-41 0l477 784l-416 691h431l145 -275q23 -39 39 -92t27 -117q6 -41 6 -76q4 82 24 158q10 47 22.5 76t22.5 51l148 275h430l-418 -691l479 -784h-438l-207 393q-16 31 -32.5 82t-26.5 121q-4 16 -5 31.5t-3 31.5l-7 -61q-10 -72 -25.5 -122t-31.5 -83l-205 -393h-436z " />
<glyph unicode="Y" horiz-adv-x="1144" d="M-70 1475h420l176 -375q12 -27 23.5 -70t19.5 -115q2 -10 3 -22t1 -23q4 57 13 109q10 49 17 76.5t18 44.5l174 375h419l-456 -828v-647h-373v647z" />
<glyph unicode="Z" horiz-adv-x="1198" d="M14 0v158l555 897q12 20 29.5 41.5t42.5 44.5q16 16 34.5 30.5t39.5 28.5q-8 -4 -15.5 -7t-15.5 -7q-68 -29 -107.5 -38t-66.5 -9h-432v336h1061v-175l-539 -880q-10 -16 -28.5 -37t-47.5 -49q-16 -16 -35.5 -31.5t-39.5 -30.5q10 4 18 8.5t18 8.5q59 25 96 34t66 9 l531 4v-336h-1164z" />
<glyph unicode="[" horiz-adv-x="583" d="M86 -319v2115h485v-285h-135v-1548h135v-282h-485z" />
<glyph unicode="\" horiz-adv-x="655" d="M70 1475h258l258 -1475h-258z" />
<glyph unicode="]" horiz-adv-x="583" d="M12 -37h135v1548h-135v285h486v-2115h-486v282z" />
<glyph unicode="^" horiz-adv-x="1099" d="M70 317l479 863l481 -863h-293l-188 369l-187 -369h-292z" />
<glyph unicode="_" horiz-adv-x="1069" d="M68 0v254h933v-254h-933z" />
<glyph unicode="`" horiz-adv-x="610" d="M4 1438l291 139l186 -360l-223 -109z" />
<glyph unicode="a" horiz-adv-x="1222" d="M47 542q6 124 51 224t120 170t169 94q56 15 107 15q10 0 22 -1q62 -4 113 -23.5t89 -53t58 -76.5v125h365v-1016h-365v129q-41 -86 -138 -132q-62 -29 -139 -29q-44 0 -93 9q-111 20 -196 99.5t-126 208.5q-38 117 -38 226q0 16 1 31zM395 502q0 -14 1 -26.5t3 -24.5 q27 -154 164 -179q16 -3 33 -3h8q21 1 43 5q127 31 148 185q4 28 4 54q0 63 -25 113q-35 70 -98 99q-41 18 -83 18h-8q-46 -2 -84 -25.5t-65.5 -64.5t-36.5 -98q-4 -14 -4 -27.5v-25.5z" />
<glyph unicode="b" horiz-adv-x="1216" d="M82 0v1475h364v-578q18 39 53.5 71.5t82.5 52t103 25.5q17 2 34 1q41 0 88 -9q47 -10 80 -26q70 -31 127 -87.5t96 -134.5q40 -76 54 -172q7 -47 7 -97q0 -52 -8 -107q-27 -184 -118 -293t-224 -139q-58 -12 -109 -12h-28q-63 4 -111.5 25t-81 54t-45.5 74v-123h-364z M416 508v-9q0 -93 41 -149q43 -60 121 -76q23 -5 44 -4q24 0 47 6q42 12 74.5 42t51 78t18.5 112q-1 111 -59 174q-57 61 -139 61h-5q-86 -2 -140 -63t-54 -172z" />
<glyph unicode="c" horiz-adv-x="935" d="M47 498v9q-1 139 57 251q60 116 161.5 189t237.5 93q41 6 84 7q98 0 204 -33q74 -23 133 -56l-119 -266q-16 8 -33.5 15.5t-38.5 13.5q-47 14 -90 14q-19 0 -37 -3q-59 -9 -103 -41q-43 -32 -67 -82q-22 -46 -22 -101v-10q2 -61 29.5 -108.5t71.5 -75.5q43 -30 101 -36 q13 -1 26 -1q45 0 93 18q37 12 68 37l137 -226q-59 -49 -128 -80.5t-142 -45.5q-57 -10 -111 -10q-67 0 -129 16q-113 28 -198 98t-134 176.5t-51 237.5z" />
<glyph unicode="d" horiz-adv-x="1224" d="M55 399q-10 62 -10 120q0 86 22 162q37 128 114 215t183 126q67 25 138 25q41 0 84 -9q82 -18 128 -53t64 -84l-2 574h367v-1475h-367v135q-10 -41 -40.5 -75.5t-79 -58.5t-110.5 -31q-21 -2 -44 -2q-44 0 -94 9q-131 25 -227.5 133.5t-125.5 288.5zM403 506 q0 -14 1.5 -26.5t3.5 -24.5q14 -78 57 -125t108 -58q18 -3 35 -3h8q20 1 41 5q70 18 110 76t40 156q0 111 -57.5 174t-143.5 63q-84 0 -143.5 -63t-59.5 -174z" />
<glyph unicode="e" horiz-adv-x="1167" d="M50 415q-5 36 -6 72q0 97 36 201q49 139 149.5 228.5t235.5 117.5q72 14 138 14q60 0 115 -12q116 -24 203 -93t139 -178.5t62 -252.5q2 -20 2 -39q0 -28 -4 -53h-725q0 -10 4 -31q12 -57 43 -94t76 -57q38 -18 80 -18q22 0 45 6q66 14 119 71q12 14 22.5 28.5t18.5 30.5 l291 -104q-29 -66 -84.5 -123t-137.5 -100q-59 -31 -125.5 -46.5t-152.5 -15.5q-147 0 -265 59.5t-189.5 159t-89.5 229.5zM393 614h383q0 20 -2 31q-16 90 -78 134q-44 31 -100 31q-23 0 -47 -5q-18 -4 -37 -12q-41 -18 -70.5 -55.5t-42.5 -88.5q-2 -8 -3 -16t-3 -19z" />
<glyph unicode="f" horiz-adv-x="673" d="M-10 721v295h149v135q0 98 41 174t117 121t185 55q23 2 48 2q89 0 195 -28q12 -4 23.5 -7.5t23.5 -7.5l-35 -246q-12 4 -20 5q-41 10 -74 10q-51 0 -85 -23q-54 -39 -54 -116v-74h233v-295h-233v-721h-365v721h-149z" />
<glyph unicode="g" horiz-adv-x="1224" d="M47 487v16q0 102 23 186q26 91 72 162t110.5 117t138.5 64q63 16 119 16q68 0 124 -24q103 -43 144 -129v121h365v-963q0 -203 -107.5 -316.5t-343.5 -144.5q-59 -8 -122 -8q-31 0 -64 2q-61 4 -111.5 12.5t-95.5 21.5t-87 32.5t-87 48.5q-8 4 -15.5 9t-15.5 11l125 250 q6 -6 13.5 -11t15.5 -11q74 -55 153 -80q57 -18 109 -21q17 -2 33 -2q34 0 63 6q43 7 75 23t50 37q23 29 35 56.5t12 49.5v82q-41 -72 -132 -108q-53 -20 -122 -20q-48 0 -104 10q-80 14 -147.5 56t-117 106.5t-78 151.5t-30.5 191zM397 504q2 -98 47 -157.5t119 -76.5 q20 -3 38 -3q25 0 46 5q133 33 152 191q3 26 3 49q0 69 -26 122q-35 71 -96 99q-42 19 -85 19h-6q-46 -2 -85 -26t-66.5 -66t-36.5 -99q-2 -14 -3 -27.5t-1 -29.5z" />
<glyph unicode="h" horiz-adv-x="1159" d="M82 0v1475h364v-576q4 6 10.5 12.5t10.5 12.5q82 90 190 112q54 11 102 11q127 -1 207 -79q112 -108 111 -339v-629h-366v555q0 45 -3 68.5t-10 40.5q-23 54 -79 70q-18 5 -36 5q-37 0 -73 -24q-35 -23 -49.5 -62t-14.5 -125v-528h-364z" />
<glyph unicode="i" horiz-adv-x="522" d="M53 1296q0 70 57.5 123.5t153.5 55.5q88 0 156 -58q29 -25 43 -56.5t14 -64t-14 -64.5t-43 -56q-68 -55 -154 -56q-49 0 -88 14.5t-66.5 39t-43 56t-15.5 66.5zM82 0v1016h364v-1016h-364z" />
<glyph unicode="j" horiz-adv-x="526" d="M-180 -369l37 252q6 -2 22 -6q40 -9 71 -9q58 0 89 30q47 47 47 178v940h365v-1020q0 -246 -147 -348q-86 -61 -221 -61q-95 0 -214 30q-12 4 -24.5 7t-24.5 7zM57 1296q0 35 14.5 67t42 56.5t67.5 40t87 15.5q86 0 154 -58q29 -25 43 -55.5t14 -64t-14 -64.5t-43 -55 q-63 -53 -154 -58q-47 0 -86 14.5t-66.5 39t-43 56t-15.5 66.5z" />
<glyph unicode="k" horiz-adv-x="1136" d="M94 0v1475h365v-904l291 445h419l-342 -490l375 -526h-446l-297 471v-471h-365z" />
<glyph unicode="l" horiz-adv-x="528" d="M82 0v1475h364v-1475h-364z" />
<glyph unicode="m" horiz-adv-x="1738" d="M82 0v1016h358v-133q4 8 9.5 14t9.5 12q72 96 192 125q53 11 100 11q50 -1 93 -13q84 -24 137 -84q10 -12 18.5 -24.5t14.5 -26.5q6 8 12 14.5t12 12.5q45 43 98.5 72.5t112.5 39.5q60 12 111 12q124 0 196 -70q102 -99 101 -331v-647h-365v553q0 88 -19.5 125t-66.5 47 q-16 4 -31 4q-47 0 -79 -38q-44 -50 -43 -167v-524h-367v563q0 55 -4 79t-16 42q-28 43 -82 47h-9q-49 0 -86 -37q-23 -23 -33 -58.5t-10 -94.5v-541h-364z" />
<glyph unicode="n" horiz-adv-x="1163" d="M82 0v1016h364v-142l11 17l14 18q31 41 66.5 69t89.5 44q81 29 150 28q20 0 38 -2q84 -10 143.5 -59t91 -135t31.5 -203v-651h-364v553q0 111 -45 159q-30 32 -74 32q-21 0 -45 -7l-31 -12q-37 -23 -56.5 -68t-19.5 -131v-526h-364z" />
<glyph unicode="o" horiz-adv-x="1196" d="M47 508q0 129 49 234.5t135 178t203 104.5q73 20 155 21q48 0 99 -8q104 -14 189.5 -59t145.5 -114.5t93 -161t33 -197.5q0 -117 -40 -216.5t-112.5 -171t-174 -111.5t-224.5 -40t-224.5 40t-174 113t-112.5 172t-40 216zM389 508q0 -70 25.5 -122t70.5 -81 q53 -35 112.5 -35t113.5 35q53 35 79 101q17 43 18 94q0 27 -5 57q-14 100 -92 152q-52 35 -111 35h-2q-60 0 -113 -35q-45 -29 -70.5 -80t-25.5 -121z" />
<glyph unicode="p" horiz-adv-x="1220" d="M82 -383v1399h364v-137q14 45 48 80.5t83.5 57t112.5 27.5q16 1 34 1q48 0 101 -11q72 -14 135.5 -57t110.5 -109.5t75 -155.5t28 -196q0 -111 -26 -201t-73 -158.5t-109.5 -113.5t-136.5 -61q-58 -13 -109 -13q-52 0 -96 13q-89 28 -143 94q-10 12 -18 26.5t-17 30.5 v-516h-364zM424 500q0 -14 1 -26.5t3 -24.5q25 -154 160 -183q22 -4 42 -4q62 0 112 37q65 49 81 152q5 25 5 50t-5 50q-16 104 -83 155q-48 35 -106 35q-24 0 -50 -6q-72 -16 -117 -79q-43 -59 -43 -148v-8z" />
<glyph unicode="q" horiz-adv-x="1220" d="M47 502q0 104 26.5 194t73 159t108.5 115t130 62q59 14 113 14q56 0 106 -16q96 -31 154 -106q4 -6 8 -12.5t8 -12.5v117h365v-1399h-365v498q-16 -29 -39 -52q-55 -59 -143 -83q-44 -11 -95 -11q-49 0 -104 11q-72 14 -134 57t-109.5 110.5t-75 156.5t-27.5 198z M397 508v-8q0 -93 43 -152q45 -61 117 -78q24 -6 47 -6q24 0 46 6q44 13 78 43.5t52.5 79.5t18.5 115q-2 98 -45 156.5t-113 74.5q-25 6 -48 6q-22 0 -43 -5q-44 -11 -78 -41.5t-54.5 -79t-20.5 -111.5z" />
<glyph unicode="r" horiz-adv-x="782" d="M80 0v1016h364v-164q29 96 118 150q72 43 174 42q25 0 52 -2q10 -2 19.5 -3t19.5 -3l-65 -344q-6 2 -13.5 3t-13.5 3q-42 6 -76 6q-41 0 -75 -9q-60 -17 -95 -60q-27 -31 -36 -68t-9 -112v-455h-364z" />
<glyph unicode="s" horiz-adv-x="874" d="M-4 123l129 235q16 -20 33.5 -36.5t40.5 -32.5q83 -57 153 -59q6 0 10 -1q62 0 89 27q23 25 23 51q0 7 -2 13q-8 34 -54 59q-4 2 -9.5 4t-11.5 4l-20 6l-49 15l-31 10l-45 16q-45 14 -76 37q-59 37 -90 97q-32 63 -32 134q0 66 29 132q30 68 93 120q62 51 152 76 q60 16 129 16q36 0 75 -4q78 -8 147 -33.5t116 -60.5l18 -14l-115 -234q-10 8 -17 15.5t-17 13.5q-31 23 -68 39q-35 14 -56.5 18.5t-37.5 4.5q-35 -2 -58 -15q-29 -14 -38 -38.5t6 -45.5q12 -18 49 -35q8 -4 20 -8l27 -8l43 -12l24 -6l48 -15q123 -39 176 -132 q34 -60 34 -137q0 -42 -10 -89q-16 -68 -57 -124t-104.5 -94t-149.5 -54q-54 -10 -114 -11q-37 0 -76 4q-84 8 -148.5 33t-118.5 66q-16 12 -30.5 24t-28.5 29z" />
<glyph unicode="t" horiz-adv-x="733" d="M-16 721v295h147v252h365v-252h235v-295h-235v-301q0 -104 45 -146q30 -28 86 -28q28 0 63 8l17 4l14 4l43 -237q-23 -10 -49 -19q-33 -10 -63.5 -17t-65.5 -12q-50 -7 -95 -7q-154 0 -244 78q-116 100 -116 296v377h-147z" />
<glyph unicode="u" horiz-adv-x="1167" d="M82 451v565h364v-541q0 -84 26 -121t85 -47q25 -6 51 0q59 10 85 47t26 121v541h366v-565q0 -211 -100 -330t-315 -148q-44 -5 -87.5 -5t-86.5 5q-213 29 -313.5 148t-100.5 330z" />
<glyph unicode="v" horiz-adv-x="1003" d="M-59 1016h383l137 -402q6 -16 11 -36.5t13 -51.5q6 -31 10.5 -62.5t6.5 -64.5q6 66 18 127q6 31 12.5 51.5t10.5 36.5l137 402h383l-418 -1016h-285z" />
<glyph unicode="w" horiz-adv-x="1552" d="M-45 1016h379l119 -369q8 -25 16 -65.5t12 -94.5q2 -16 2 -29.5t2 -27.5q0 16 2 32.5t5 33.5q6 39 15 74.5t23 78.5l125 367h242l125 -367q14 -43 23.5 -77.5t15.5 -75.5q2 -16 4 -33t2 -33q2 31 5 63.5t7 63.5q6 35 11.5 55.5t9.5 34.5l119 369h378l-362 -1016h-279 l-135 397q-12 39 -22.5 84t-16.5 92q-2 16 -3 32t-3 32q-2 -16 -3 -31.5t-3 -32.5q-6 -47 -16.5 -91t-22.5 -85l-135 -397h-279z" />
<glyph unicode="x" horiz-adv-x="1110" d="M-70 0l408 537l-369 479h437l102 -158q16 -23 29 -59q16 -37 18 -76l6 37q16 61 41 98l103 158h436l-369 -479l408 -537h-435l-137 199q-31 43 -45 100q-4 14 -8 39q-6 -39 -18.5 -69.5t-38.5 -69.5l-133 -199h-435z" />
<glyph unicode="y" horiz-adv-x="991" d="M-55 1016h381l133 -379q6 -16 12 -41t12 -66q4 -27 8.5 -54t6.5 -54q2 29 6 54.5t10 53.5q14 63 27 101l135 385h385l-455 -1094q-41 -102 -85 -169.5t-98 -106.5t-121 -52q-46 -10 -101 -10q-25 0 -51 2q-63 6 -130 29l46 297l18 -6q39 -13 71 -13q30 0 53 13 q46 24 79 110l18 50l6 16z" />
<glyph unicode="z" horiz-adv-x="1024" d="M10 0v147l385 492q6 8 41 43q23 23 47.5 44.5t48.5 41.5q-59 -25 -122 -37q-31 -6 -42.5 -8t-17.5 -2h-287v295h938v-133l-391 -502q-10 -12 -34.5 -39t-55.5 -55q-25 -25 -49 -43q14 6 27.5 12t27.5 10q43 16 78 22.5t53 6.5h318v-295h-965z" />
<glyph unicode="{" horiz-adv-x="724" d="M70 737q59 2 97 43t38 105v645q0 90 50 140t142 50h258v-153h-26q-66 0 -90.5 -23.5t-24.5 -81.5v-540q0 -55 -32.5 -102.5t-86.5 -69.5q-29 -10 -55 -13q27 -4 55 -12q53 -23 86 -70t33 -102v-541q0 -57 24.5 -80.5t90.5 -23.5h26v-154h-258q-92 0 -142 50.5t-50 140.5 v645q0 63 -38 104t-97 43z" />
<glyph unicode="|" horiz-adv-x="397" d="M70 0v1475h258v-1475h-258z" />
<glyph unicode="}" horiz-adv-x="724" d="M70 -92h26q66 0 90.5 23.5t24.5 80.5v541q0 55 32.5 102t86.5 70q27 8 55 12q-29 2 -55 13q-53 23 -86 69.5t-33 102.5v540q0 57 -24.5 81t-90.5 24h-26v153h258q92 0 142 -50t50 -140v-645q0 -63 38 -104.5t97 -43.5q-59 -2 -97 -43t-38 -104v-645q0 -90 -50 -140.5 t-142 -50.5h-258v154z" />
<glyph unicode="~" horiz-adv-x="1036" d="M70 555v26.5t2 24.5q18 207 123.5 279.5t261.5 15.5l170 -65l47 -17q35 -12 55.5 -1t36.5 54q4 10 6 19.5t2 19.5q2 6 2 19h191v-25.5t-2 -25.5q-18 -207 -123 -280t-262 -13l-170 63l-48 17q-35 14 -55 1.5t-37 -55.5q-8 -20 -8 -37q-2 -6 -2 -20h-190z" />
<glyph unicode="&#xa1;" horiz-adv-x="569" d="M84 1303q0 86 59.5 145t145.5 59q88 0 147 -59q31 -31 45.5 -69t14.5 -77.5t-14.5 -77.5t-45.5 -69q-29 -29 -66.5 -44t-78.5 -15q-43 0 -81 16t-65.5 44t-44 66t-16.5 81zM109 -4v1008h358v-1008h-358z" />
<glyph unicode="&#xa2;" horiz-adv-x="919" d="M47 496q0 94 24.5 176t71.5 147.5t111.5 112.5t144.5 72q27 8 47 10v166h250v-154q43 -4 83 -14.5t79 -26.5q16 -8 32.5 -15t33.5 -18l-119 -266q-55 31 -115 37q-57 6 -100 -2q-51 -8 -91 -38t-61.5 -73t-24.5 -95t19 -105q18 -43 54 -75t82 -45.5t98.5 -9t103.5 30.5 q10 4 17.5 10.5t15.5 10.5l121 -236q-31 -25 -72 -49q-76 -45 -156 -59v-176h-250v174q-82 12 -154.5 56t-126.5 111.5t-86 154.5t-32 188z" />
<glyph unicode="&#xa3;" horiz-adv-x="1165" d="M55 0v338l97 217h-95v256h201l121 242q115 225 278.5 335.5t382.5 114.5q16 0 35 -1t35 -1v-313h-23.5t-23.5 -2q-129 -8 -211 -60.5t-147 -169.5l-82 -145h397v-256h-504l-92 -217h680v-338h-1049z" />
<glyph unicode="&#xa4;" horiz-adv-x="942" d="M70 428l112 113q-59 92 -59 200.5t59 200.5l-108 109q16 25 36.5 47t43.5 43l116 -117q49 33 99 47q78 27 157.5 14.5t145.5 -59.5l114 117q6 -4 13.5 -10.5t13.5 -10.5q35 -31 59 -71l-110 -107q68 -92 63 -207q0 -53 -17 -104t-50 -96l112 -113l-18 -21l-18 -20 q-10 -12 -22.5 -23.5t-25.5 -23.5l-114 115q-66 -47 -146 -60.5t-157 12.5q-51 14 -95 50l-120 -115l-21 20l-20 23l-23 22zM244 737q0 -94 67 -162q33 -35 76 -51t87 -16t86 16.5t77 50.5q68 68 68 162q0 47 -18.5 89t-49.5 73t-73 49.5t-89 18.5t-89 -18.5t-73.5 -49.5 t-50 -73t-18.5 -89z" />
<glyph unicode="&#xa5;" horiz-adv-x="1398" d="M57 1475h420l176 -375q12 -27 23.5 -70t19.5 -115q2 -10 3 -22t1 -23q4 57 13 109q10 49 17 76.5t18 44.5l174 375h419l-284 -533h219v-254h-363l-28 -41l2 -39h389v-250h-389l-2 -358h-373v358h-381v252h381v37l-18 39h-361v256h225z" />
<glyph unicode="&#xa7;" horiz-adv-x="1292" d="M59 479q-27 117 12.5 214.5t137.5 166.5q10 8 20.5 14.5t20.5 12.5l-19 18q-57 55 -77.5 129t-5 150t68.5 145.5t143 114.5q80 39 170 53q141 23 255 6.5t199 -68t141.5 -132t82.5 -187.5q4 -16 6.5 -33.5t4.5 -33.5l-324 10q0 8 -4 24q-27 119 -164 150q-12 4 -23.5 5 t-23.5 3q-49 4 -86 -4t-57 -18q-35 -20 -40 -56.5t19 -60.5l8 -8t8 -9q25 -18 33 -24l6 -2l54 -23l340 -137q117 -45 183 -121t85 -172q27 -125 -3 -213t-120 -168q-10 -8 -18.5 -15t-18.5 -13q51 -37 74.5 -104.5t12.5 -145.5t-56 -154t-127 -129q-49 -31 -110.5 -50.5 t-143.5 -29.5q-47 -4 -94 -4t-94 8q-162 23 -268.5 98.5t-153.5 192.5q-39 88 -35 182l328 -12q-2 -53 26.5 -97t87.5 -79q29 -20 70 -27q45 -8 81 -7t58 9q31 10 47.5 24.5t24.5 33.5q16 43 -4.5 73.5t-87.5 59.5l-351 145q-139 59 -209.5 132t-89.5 163zM412 694 q-102 -111 41 -196q18 -12 39 -19l350 -141l12 10l20 17l21 20q53 57 38 119.5t-102 97.5l-352 143q-6 -4 -12 -7t-12 -7q-12 -10 -23.5 -18t-19.5 -19z" />
<glyph unicode="&#xa8;" horiz-adv-x="763" d="M-51 1294q0 76 55 131q27 27 60.5 40.5t69.5 13.5t69 -14.5t59 -41.5q27 -27 40 -60.5t13 -69.5t-13 -69.5t-40 -60.5t-60.5 -40t-69.5 -13t-69.5 13.5t-60.5 39.5q-53 53 -53 131zM449 1294q0 76 53 129q27 27 59.5 41.5t68.5 14.5t69.5 -13.5t60.5 -40.5t41 -61.5 t14 -69t-13.5 -69.5t-39.5 -62q-27 -27 -60.5 -40t-69.5 -13t-70 13.5t-60 39.5q-53 53 -53 131z" />
<glyph unicode="&#xa9;" horiz-adv-x="1765" d="M119 737q0 160 60.5 299.5t163.5 242.5t242.5 163.5t297.5 60.5t297 -60.5t242.5 -163.5t164 -242.5t60.5 -299.5q0 -158 -60.5 -297t-164 -242.5t-243 -164t-296.5 -60.5q-158 0 -297.5 60.5t-242.5 164t-163.5 242.5t-60.5 297zM250 737q0 -129 48 -245.5t140 -208.5 q92 -94 208 -141.5t237 -47.5t237.5 47t208.5 142q94 94 140.5 212.5t46.5 242.5t-46.5 243t-140.5 213q-92 94 -208.5 140t-237.5 46t-237 -46t-208 -140q-92 -92 -140 -210t-48 -247zM461 817q18 96 67.5 173t121 128t161.5 70.5t188 3.5q59 -10 114.5 -34.5t103.5 -63.5 l-84 -121q-61 51 -140 67q-68 12 -129 -1t-111.5 -48t-84 -87t-43.5 -118q-10 -70 4 -131t48 -110t85 -82t117 -43q86 -14 174 20q45 23 80 52l81 -121q-86 -72 -192 -92q-102 -23 -194.5 -7.5t-166 62.5t-125 121.5t-71.5 171.5q-20 90 -4 190z" />
<glyph unicode="&#xaa;" horiz-adv-x="921" d="M73.5 1038.5q-12.5 75.5 4.5 161.5q23 106 86 182q53 63 124.5 91t142.5 23t131.5 -40t92.5 -98v117h195l2 -713h-197v123q-2 -4 -4 -7.5t-4 -7.5q-35 -66 -118 -103.5t-189 -14.5q-70 14 -125 53t-92 98.5t-49.5 135zM88 487v179h764v-179h-764zM270 1120 q-2 -80 42 -134t116 -66q37 -10 78 0q59 12 98 54t51 105q8 43 0 82q-14 76 -66 120t-124 46t-124 -43t-67 -123q-2 -10 -3 -20.5t-1 -20.5z" />
<glyph unicode="&#xab;" horiz-adv-x="1366" d="M55 508l539 510l180 -184l-352 -324l352 -328l-180 -186zM592 508l538 510l181 -184l-353 -324l353 -328l-181 -186z" />
<glyph unicode="&#xac;" horiz-adv-x="1269" d="M70 737v258h1130v-553h-196v295h-934z" />
<glyph unicode="&#xad;" horiz-adv-x="669" d="M57 328v340h555v-340h-555z" />
<glyph unicode="&#xaf;" horiz-adv-x="774" d="M2 1157v215h770v-215h-770z" />
<glyph unicode="&#xb0;" horiz-adv-x="718" d="M70 1214q0 57 21.5 110.5t62.5 94.5q43 43 96 63.5t109.5 20.5t109.5 -20.5t96 -63.5q41 -41 62.5 -94t21.5 -111q0 -59 -22.5 -112t-61.5 -93t-92 -62.5t-113 -22.5q-61 0 -113 22.5t-92 62.5t-62.5 93t-22.5 112zM170 1214q0 -39 14.5 -73.5t41 -60t60 -41t74.5 -15.5 q78 0 134 55q29 27 43 63t14 71.5t-14.5 70.5t-42.5 64q-27 29 -62 43t-72 14q-41 0 -74.5 -15.5t-60 -41t-41 -60.5t-14.5 -74z" />
<glyph unicode="&#xb4;" horiz-adv-x="608" d="M129 1217l186 364l289 -139l-256 -332z" />
<glyph unicode="&#xb6;" horiz-adv-x="1257" d="M70 1038q0 90 33.5 170t93 139.5t137.5 93.5t168 34h686v-148h-686q-59 0 -112.5 -22.5t-92.5 -62.5t-60.5 -93t-21.5 -115q0 -59 23.5 -111.5t62.5 -90t90 -60t109 -22.5h129v467h159v-1217h-159v602h-127q-90 0 -168 34t-137.5 93t-93 139t-33.5 170zM911 0v1217h160 v-1217h-160z" />
<glyph unicode="&#xb7;" d="M444 508q0 41 15.5 78t44.5 65q31 31 67.5 45.5t76.5 14.5t77 -14.5t68 -45.5t46 -67.5t15 -76.5t-15.5 -77t-45.5 -68q-31 -31 -68 -45t-77 -14t-76.5 14.5t-67.5 44.5q-60 60 -60 146z" />
<glyph unicode="&#xb8;" horiz-adv-x="417" d="M37 -395l115 303l260 -25l-160 -301z" />
<glyph unicode="&#xba;" horiz-adv-x="921" d="M70 1120q0 23 2 42.5t6 39.5q16 78 59 139.5t104.5 101.5t137.5 54t158 0q119 -23 200.5 -101.5t106.5 -191.5q20 -102 -8.5 -194t-93 -158t-157.5 -96.5t-200 -12.5q-70 12 -128 47t-99 85.5t-64.5 112.5t-23.5 132zM82 487v179h760v-179h-760zM264 1120q0 -10 1 -19 t3 -20q12 -63 52 -105t100 -54q84 -16 150.5 28.5t82.5 130.5q16 88 -28.5 155t-124.5 85q-41 6 -78 0q-59 -14 -100 -56t-54 -106q-2 -10 -3 -19.5t-1 -19.5z" />
<glyph unicode="&#xbb;" horiz-adv-x="1361" d="M55 184l351 326l-351 326l178 184l537 -514l-539 -508zM592 836l180 184l535 -514l-539 -508l-174 186l350 326z" />
<glyph unicode="&#xbf;" horiz-adv-x="1105" d="M47 340q-31 156 23.5 272.5t179.5 184.5l47 24l39 19l20 10l19 8l12 8l14 8q16 10 22.5 21.5t8.5 34.5q2 4 2 16v55h361v-133q0 -94 -27 -132t-98 -58l-27 -8l-25 -8l-30 -13q-53 -25 -89 -47t-57.5 -47t-31 -52.5t-9.5 -64.5q-2 -49 14.5 -89t45 -65.5t67.5 -35.5t84 0 q113 27 138 153q2 10 2 17.5v15.5l350 -45q-6 -37 -19 -74q-49 -147 -158.5 -237t-267.5 -111q-121 -16 -224 5.5t-183 72.5t-132 127t-71 168zM410 1305q0 84 61 145q31 31 67.5 45t76.5 14t77 -14t68 -45t46 -70t15 -78.5t-15 -77.5t-46 -69t-69 -45t-77 -14t-76.5 15 t-68.5 46q-29 29 -45 68t-14 80z" />
<glyph unicode="&#xc0;" horiz-adv-x="1320" d="M-55 0l520 1475h391l520 -1475h-389l-86 274h-481l-88 -274h-387zM358 1896l291 140l187 -361l-224 -108zM500 549h319l-117 371q-4 16 -10 34.5t-10 44.5q-12 55 -17.5 110.5t-5.5 111.5q2 -55 -4 -110.5t-16 -111.5q-6 -25 -11 -44t-10 -35z" />
<glyph unicode="&#xc1;" horiz-adv-x="1320" d="M-55 0l520 1475h391l520 -1475h-389l-86 274h-481l-88 -274h-387zM485 1675l187 365l289 -139l-256 -332zM500 549h319l-117 371q-4 16 -10 34.5t-10 44.5q-12 55 -17.5 110.5t-5.5 111.5q2 -55 -4 -110.5t-16 -111.5q-6 -25 -11 -44t-10 -35z" />
<glyph unicode="&#xc2;" horiz-adv-x="1320" d="M-55 0l520 1475h391l520 -1475h-389l-86 274h-481l-88 -274h-387zM262 1749l400 260l397 -260l-90 -184l-307 135l-312 -133zM500 549h319l-117 371q-4 16 -10 34.5t-10 44.5q-12 55 -17.5 110.5t-5.5 111.5q2 -55 -4 -110.5t-16 -111.5q-6 -25 -11 -44t-10 -35z" />
<glyph unicode="&#xc3;" horiz-adv-x="1320" d="M-55 0l520 1475h391l520 -1475h-389l-86 274h-481l-88 -274h-387zM299 1575v229q10 4 18.5 7.5t18.5 7.5q59 20 112.5 22t131.5 -10l12 -4l84 -17q10 -4 18 -5t19 -3q104 -16 173.5 -8t133.5 41v-231q-8 -2 -14.5 -4.5t-14.5 -4.5q-66 -18 -120 -21t-117 7l-47 10l-43 8 l-46 9l-55 10q-106 14 -184 -8q-39 -12 -80 -35zM500 549h319l-117 371q-4 16 -10 34.5t-10 44.5q-12 55 -17.5 110.5t-5.5 111.5q2 -55 -4 -110.5t-16 -111.5q-6 -25 -11 -44t-10 -35z" />
<glyph unicode="&#xc4;" horiz-adv-x="1320" d="M-55 0l501 1423q-20 -4 -45.5 -3t-54.5 10q-66 16 -104 61q-41 41 -38 100.5t48 96.5q59 49 138 49t138 -54q47 -41 52.5 -99t-33.5 -109h250q-27 20 -41.5 47.5t-16.5 56.5t10.5 56.5t36.5 50.5q59 51 138.5 51t140.5 -51q47 -41 50 -101.5t-40 -105.5q-45 -47 -112 -58 q-47 -8 -84 0l497 -1421h-389l-86 274h-481l-88 -274h-387zM500 549h323l-121 371q-4 14 -9 32.5t-11 46.5q-12 55 -17.5 110.5t-5.5 111.5q2 -55 -4 -110.5t-16 -111.5q-6 -25 -11 -44t-10 -35z" />
<glyph unicode="&#xc5;" horiz-adv-x="1312" d="M-55 0l524 1475h88q-27 10 -49.5 29.5t-38.5 41.5q-39 57 -31 127t62 117q33 31 74.5 46t83.5 15t83 -16t76 -47q37 -35 51.5 -79t8 -88t-34 -83t-72.5 -63h74l524 -1475h-377l-92 276h-485l-92 -276h-377zM489 545h334l-125 375q-4 14 -9 32.5t-11 46.5 q-10 55 -16.5 110.5t-4.5 111.5q0 -55 -5 -110.5t-17 -111.5q-6 -29 -11.5 -47t-9.5 -32zM582 1651q0 -31 22 -58q23 -23 54.5 -22.5t54.5 22.5q23 23 22.5 55.5t-22.5 55.5q-23 23 -54.5 22.5t-54.5 -22.5q-22 -22 -22 -53z" />
<glyph unicode="&#xc6;" horiz-adv-x="1894" d="M-55 0l829 1475h1045v-308h-494v-254h430v-295h-430v-315l510 4v-307h-885v317h-432l-164 -317h-409zM649 588h301v602z" />
<glyph unicode="&#xc7;" horiz-adv-x="1320" d="M59 874q27 162 108 289t199.5 210t267 115t312.5 1q205 -37 363 -174l-187 -271q-49 39 -108 64q-35 14 -78 25q-104 23 -196.5 -1t-162 -81.5t-108.5 -142.5t-35 -187q2 -78 27.5 -145.5t71 -118.5t107.5 -85t136 -46q94 -16 184.5 11.5t161.5 90.5l183 -272 q-139 -125 -324 -168q-168 -39 -318.5 -14.5t-272.5 99t-206 197.5t-118 281q-35 160 -7 323zM496 -365l116 304l258 -25l-159 -299z" />
<glyph unicode="&#xc8;" horiz-adv-x="1021" d="M82 0v1475h868v-295h-491v-267h428v-295h-428v-323h508v-295h-885zM209 1896l291 140l186 -361l-223 -108z" />
<glyph unicode="&#xc9;" horiz-adv-x="1021" d="M82 0v1475h868v-295h-491v-267h428v-295h-428v-323h508v-295h-885zM336 1675l186 365l289 -139l-256 -332z" />
<glyph unicode="&#xca;" horiz-adv-x="1021" d="M82 0v1475h868v-295h-491v-267h428v-295h-428v-323h508v-295h-885zM113 1749l399 260l397 -260l-90 -184l-307 135l-311 -133z" />
<glyph unicode="&#xcb;" horiz-adv-x="1021" d="M78 1753q0 76 55 131q27 27 60.5 40t69.5 13t69 -14t59 -41q27 -27 40 -60.5t13 -69.5t-13 -69.5t-40 -60.5t-60.5 -40t-69.5 -13t-69.5 13t-60.5 40q-53 53 -53 131zM82 0v1475h868v-295h-491v-267h428v-295h-428v-323h508v-295h-885zM578 1753q0 76 53 129 q27 27 59.5 41t68.5 14t69.5 -13t60.5 -40t41 -61.5t14 -69.5t-13 -69.5t-40 -61.5t-60.5 -40t-69.5 -13t-70 13t-60 40q-53 53 -53 131z" />
<glyph unicode="&#xcc;" horiz-adv-x="540" d="M-31 1896l291 140l186 -361l-223 -108zM82 0v1475h377v-1475h-377z" />
<glyph unicode="&#xcd;" horiz-adv-x="540" d="M82 0v1475h377v-1475h-377zM96 1675l187 365l288 -139l-256 -332z" />
<glyph unicode="&#xce;" horiz-adv-x="540" d="M-127 1749l399 260l398 -260l-90 -184l-308 135l-311 -133zM82 0v1475h377v-1475h-377z" />
<glyph unicode="&#xcf;" horiz-adv-x="540" d="M-162 1753q0 76 56 131q27 27 60.5 40t69 13t68.5 -14t60 -41t40 -60.5t13 -69.5t-13.5 -69.5t-39.5 -60.5q-27 -27 -61 -40t-69.5 -13t-69.5 13t-61 40q-53 53 -53 131zM82 0v1475h377v-1475h-377zM338 1753q0 76 53 129q27 27 59.5 41t68.5 14t70 -13t60 -40 q27 -27 41.5 -61.5t14.5 -69.5t-13.5 -69.5t-40.5 -61.5t-60.5 -40t-69.5 -13t-69.5 13t-60.5 40q-53 53 -53 131z" />
<glyph unicode="&#xd1;" horiz-adv-x="1507" d="M82 0v1475h381l514 -746q6 -8 12 -18.5t14.5 -29.5t20.5 -49t31 -77l28 -72l17 -45l-8 37l-17 88q-16 82 -20 123t-4 70v719h374v-1475h-370l-533 766q-4 6 -9 15.5t-13 26.5t-20.5 45t-30.5 73q-12 31 -24.5 62.5t-23.5 64.5l11 -54l16 -79q10 -53 16.5 -85t9.5 -50.5 t4 -26.5t1 -15v-743h-377zM393 1575v229q10 4 18.5 7.5t18.5 7.5q59 20 112.5 22t131.5 -10l12 -4l84 -17q10 -4 18.5 -5t18.5 -3q104 -16 174 -8t133 41v-231q-8 -2 -14 -4.5t-15 -4.5q-66 -18 -120 -21t-117 7l-47 10l-43 8l-45 9l-56 10q-106 14 -184 -8q-39 -12 -80 -35 z" />
<glyph unicode="&#xd2;" horiz-adv-x="1609" d="M47 735q0 74 12 146q25 141 90.5 256.5t163 197.5t222 126t270.5 44q143 0 268 -44t222.5 -126t163 -197.5t91.5 -256.5q25 -145 0 -291q-25 -141 -91 -257t-163.5 -198t-222.5 -125t-268 -43q-145 0 -270 44t-222.5 125t-163 197t-90.5 257q-12 73 -12 145zM430 735 q0 -39 6 -76q14 -86 57.5 -152.5t102.5 -109.5t132 -59t149 0q111 23 192.5 107.5t104.5 213.5q12 76 0 154q-16 86 -58.5 151.5t-103 108.5t-132 59.5t-147.5 2.5q-111 -23 -192.5 -109t-104.5 -213q-6 -41 -6 -78zM504 1896l291 140l186 -361l-223 -108z" />
<glyph unicode="&#xd3;" horiz-adv-x="1609" d="M47 735q0 74 12 146q25 141 90.5 256.5t163 197.5t222 126t270.5 44q143 0 268 -44t222.5 -126t163 -197.5t91.5 -256.5q25 -145 0 -291q-25 -141 -91 -257t-163.5 -198t-222.5 -125t-268 -43q-145 0 -270 44t-222.5 125t-163 197t-90.5 257q-12 73 -12 145zM430 735 q0 -39 6 -76q14 -86 57.5 -152.5t102.5 -109.5t132 -59t149 0q111 23 192.5 107.5t104.5 213.5q12 76 0 154q-16 86 -58.5 151.5t-103 108.5t-132 59.5t-147.5 2.5q-111 -23 -192.5 -109t-104.5 -213q-6 -41 -6 -78zM631 1675l186 365l289 -139l-256 -332z" />
<glyph unicode="&#xd4;" horiz-adv-x="1609" d="M47 735q0 74 12 146q25 141 90.5 256.5t163 197.5t222 126t270.5 44q143 0 268 -44t222.5 -126t163 -197.5t91.5 -256.5q25 -145 0 -291q-25 -141 -91 -257t-163.5 -198t-222.5 -125t-268 -43q-145 0 -270 44t-222.5 125t-163 197t-90.5 257q-12 73 -12 145zM408 1749 l399 260l397 -260l-90 -184l-307 135l-311 -133zM430 735q0 -39 6 -76q14 -86 57.5 -152.5t102.5 -109.5t132 -59t149 0q111 23 192.5 107.5t104.5 213.5q12 76 0 154q-16 86 -58.5 151.5t-103 108.5t-132 59.5t-147.5 2.5q-111 -23 -192.5 -109t-104.5 -213q-6 -41 -6 -78z " />
<glyph unicode="&#xd5;" horiz-adv-x="1609" d="M47 735q0 74 12 146q25 141 90.5 256.5t163 197.5t222 126t270.5 44q143 0 268 -44t222.5 -126t163 -197.5t91.5 -256.5q25 -145 0 -291q-25 -141 -91 -257t-163.5 -198t-222.5 -125t-268 -43q-145 0 -270 44t-222.5 125t-163 197t-90.5 257q-12 73 -12 145zM430 735 q0 -39 6 -76q14 -86 57.5 -152.5t102.5 -109.5t132 -59t149 0q111 23 192.5 107.5t104.5 213.5q12 76 0 154q-16 86 -58.5 151.5t-103 108.5t-132 59.5t-147.5 2.5q-111 -23 -192.5 -109t-104.5 -213q-6 -41 -6 -78zM444 1575v229q10 4 18.5 7.5t18.5 7.5q59 20 112.5 22 t131.5 -10l12 -4l84 -17q10 -4 18.5 -5t18.5 -3q104 -16 174 -8t133 41v-231q-8 -2 -14 -4.5t-14 -4.5q-66 -18 -120 -21t-118 7l-47 10l-43 8l-45 9l-55 10q-106 14 -185 -8q-39 -12 -80 -35z" />
<glyph unicode="&#xd6;" horiz-adv-x="1609" d="M47 735q0 74 12 146q25 141 90.5 256.5t163 197.5t222 126t270.5 44q143 0 268 -44t222.5 -126t163 -197.5t91.5 -256.5q25 -145 0 -291q-25 -141 -91 -257t-163.5 -198t-222.5 -125t-268 -43q-145 0 -270 44t-222.5 125t-163 197t-90.5 257q-12 73 -12 145zM152 1581 q2 61 53 109.5t137 50.5q78 0 139 -51q25 -23 38 -51.5t13 -58.5t-13 -59.5t-38 -50.5q-59 -49 -141 -49q-86 0 -137 49.5t-51 110.5zM430 735q0 -39 6 -76q14 -86 57.5 -152.5t102.5 -109.5t132 -59t149 0q111 23 192.5 107.5t104.5 213.5q12 76 0 154q-16 86 -58.5 151.5 t-103 108.5t-132 59.5t-147.5 2.5q-111 -23 -192.5 -109t-104.5 -213q-6 -41 -6 -78zM1073 1581q0 61 51.5 109.5t139.5 50.5q80 0 141 -51q27 -20 40 -49t13 -60t-13 -59.5t-38 -48.5q-63 -51 -143 -52q-88 0 -140.5 49.5t-50.5 110.5z" />
<glyph unicode="&#xd8;" horiz-adv-x="1624" d="M47 39l180 182q-131 164 -168 363q-37 217 20.5 401t183.5 311t306.5 184.5t388.5 18.5q207 -37 363 -180l174 176l82 -82l-176 -174q117 -160 147 -350q31 -172 -0.5 -325.5t-111.5 -274.5t-203 -204t-275 -110q-193 -35 -356.5 10.5t-286.5 155.5l-178 -182zM446 651 q12 -76 54 -149l551 551q-20 16 -45 32q-94 59 -199 57.5t-201 -67.5q-92 -61 -137 -170.5t-23 -253.5zM580 414q55 -55 131.5 -77t167.5 -3q74 14 134 58t101 109.5t57.5 147.5t2.5 172q-12 76 -50 140z" />
<glyph unicode="&#xd9;" horiz-adv-x="1349" d="M82 594v881h377v-850q0 -78 9 -131.5t29.5 -88t53.5 -53t82 -26.5q41 -6 84 0q49 8 81.5 26.5t53 53t31 88t10.5 131.5v850h375v-881q0 -170 -47 -298t-137.5 -208t-223.5 -109.5t-307 -3.5q-244 35 -357.5 183.5t-113.5 435.5zM373 1896l291 140l186 -361l-223 -108z " />
<glyph unicode="&#xda;" horiz-adv-x="1349" d="M82 594v881h377v-850q0 -78 9 -131.5t29.5 -88t53.5 -53t82 -26.5q41 -6 84 0q49 8 81.5 26.5t53 53t31 88t10.5 131.5v850h375v-881q0 -170 -47 -298t-137.5 -208t-223.5 -109.5t-307 -3.5q-244 35 -357.5 183.5t-113.5 435.5zM500 1675l186 365l289 -139l-256 -332z " />
<glyph unicode="&#xdb;" horiz-adv-x="1349" d="M82 594v881h377v-850q0 -78 9 -131.5t29.5 -88t53.5 -53t82 -26.5q41 -6 84 0q49 8 81.5 26.5t53 53t31 88t10.5 131.5v850h375v-881q0 -170 -47 -298t-137.5 -208t-223.5 -109.5t-307 -3.5q-244 35 -357.5 183.5t-113.5 435.5zM276 1749l400 260l397 -260l-90 -184 l-307 135l-311 -133z" />
<glyph unicode="&#xdc;" horiz-adv-x="1349" d="M82 594v881h211q-49 45 -49 106t51 102q61 49 140 49.5t140 -51.5q41 -35 47.5 -88t-28.5 -94q-33 -39 -86 -59q-35 -12 -49 -13v-802q0 -78 8 -131.5t29.5 -88t54.5 -53t82 -26.5q41 -6 84 0q49 8 81.5 26.5t53 53t31 88t10.5 131.5v798q-8 2 -19.5 5.5t-29.5 11.5 q-27 10 -48.5 25.5t-39.5 35.5q-35 41 -29 94.5t47 87.5q59 49 137 49.5t140 -51.5q49 -41 54 -99t-34 -107h197v-881q0 -170 -47 -298t-137.5 -208t-223.5 -109.5t-307 -3.5q-244 35 -357.5 183.5t-113.5 435.5z" />
<glyph unicode="&#xdf;" horiz-adv-x="1208" d="M86 0v1026q0 201 90 315.5t279 149.5q137 25 249.5 4.5t192.5 -75t125 -134.5t47 -172q2 -135 -74 -227q-55 -61 -131 -86q16 -2 39 -10q84 -27 144.5 -81.5t93.5 -128t33 -161.5t-37 -182q-27 -66 -72 -119t-104.5 -88t-133 -52.5t-155.5 -13.5q-72 4 -146 31 q-6 4 -12 5t-10 5l43 275l12 -5l12 -4q41 -8 84 0q104 29 121 142q6 31 0 61q-23 129 -143 152q-20 4 -33 4h-70v287h48q68 0 108.5 34.5t48.5 100.5t-23.5 110.5t-86.5 57.5q-33 8 -78 -7q-51 -16 -76 -58t-25 -120v-1036h-360z" />
<glyph unicode="&#xe0;" horiz-adv-x="1222" d="M47 542q6 124 51 224t120 170t169 94q68 18 129.5 14t112.5 -23.5t89 -53t58 -76.5v125h365v-1016h-365v129q-41 -86 -138 -132t-232 -20q-111 20 -196 99.5t-126 208.5q-43 133 -37 257zM309 1438l291 139l186 -360l-223 -109zM395 502q0 -14 1 -26.5t3 -24.5 q27 -154 164 -179q20 -4 41 -3t43 5q127 31 148 185q14 98 -21 167.5t-98 98.5q-45 20 -91 18t-84 -25.5t-65.5 -64.5t-36.5 -98q-4 -14 -4 -27.5v-25.5z" />
<glyph unicode="&#xe1;" horiz-adv-x="1222" d="M47 542q6 124 51 224t120 170t169 94q68 18 129.5 14t112.5 -23.5t89 -53t58 -76.5v125h365v-1016h-365v129q-41 -86 -138 -132t-232 -20q-111 20 -196 99.5t-126 208.5q-43 133 -37 257zM395 502q0 -14 1 -26.5t3 -24.5q27 -154 164 -179q20 -4 41 -3t43 5 q127 31 148 185q14 98 -21 167.5t-98 98.5q-45 20 -91 18t-84 -25.5t-65.5 -64.5t-36.5 -98q-4 -14 -4 -27.5v-25.5zM436 1217l187 364l288 -139l-256 -332z" />
<glyph unicode="&#xe2;" horiz-adv-x="1222" d="M47 542q6 124 51 224t120 170t169 94q68 18 129.5 14t112.5 -23.5t89 -53t58 -76.5v125h365v-1016h-365v129q-41 -86 -138 -132t-232 -20q-111 20 -196 99.5t-126 208.5q-43 133 -37 257zM213 1290l399 260l398 -260l-90 -184l-308 135l-311 -133zM395 502q0 -14 1 -26.5 t3 -24.5q27 -154 164 -179q20 -4 41 -3t43 5q127 31 148 185q14 98 -21 167.5t-98 98.5q-45 20 -91 18t-84 -25.5t-65.5 -64.5t-36.5 -98q-4 -14 -4 -27.5v-25.5z" />
<glyph unicode="&#xe3;" horiz-adv-x="1222" d="M47 542q6 124 51 224t120 170t169 94q68 18 129.5 14t112.5 -23.5t89 -53t58 -76.5v125h365v-1016h-365v129q-41 -86 -138 -132t-232 -20q-111 20 -196 99.5t-126 208.5q-43 133 -37 257zM250 1116v230q10 4 18 7t19 7q59 20 112.5 22t130.5 -10l13 -4l84 -16 q10 -4 18 -5t19 -4q104 -16 173.5 -8t133.5 41v-231q-8 -2 -14.5 -4t-14.5 -4q-66 -18 -120 -21.5t-117 6.5l-48 11l-43 8l-45 8l-55 10q-106 14 -184 -8q-39 -12 -80 -35zM395 502q0 -14 1 -26.5t3 -24.5q27 -154 164 -179q20 -4 41 -3t43 5q127 31 148 185 q14 98 -21 167.5t-98 98.5q-45 20 -91 18t-84 -25.5t-65.5 -64.5t-36.5 -98q-4 -14 -4 -27.5v-25.5z" />
<glyph unicode="&#xe4;" horiz-adv-x="1222" d="M55.5 619.5q18.5 107.5 64.5 192.5t115.5 142.5t151.5 79.5q68 18 129.5 14t112.5 -23t89 -53t58 -77v121h365v-1016h-365v129q-41 -86 -138 -132t-232 -20q-131 25 -224.5 129.5t-124.5 284.5q-20 121 -1.5 228.5zM199 1288q0 78 53 131q27 27 60.5 41.5t69.5 14.5 t69.5 -14.5t60.5 -41.5t40 -60.5t13 -69.5t-14 -69.5t-41 -60.5t-60.5 -40t-68.5 -13t-68.5 13.5t-60.5 39.5q-53 53 -53 129zM395 502q2 -98 47 -156.5t121 -73.5q20 -4 41 -3t43 5q127 31 148 187q8 55 -1.5 106t-31.5 86q-27 43 -66 66.5t-82 28t-86 -11t-73 -52.5 q-29 -33 -45.5 -78t-14.5 -104zM705 1288q0 78 53 131q27 27 60.5 41.5t69.5 14.5t69.5 -14.5t60.5 -41.5t40 -60.5t13 -69.5t-13.5 -69.5t-39.5 -60.5q-27 -27 -60.5 -40t-69.5 -13t-70 13.5t-60 39.5q-25 27 -39 59.5t-14 69.5z" />
<glyph unicode="&#xe5;" horiz-adv-x="1220" d="M55.5 619.5q18.5 107.5 64.5 192.5t115.5 142.5t151.5 79.5q68 18 131.5 14t114.5 -24t88 -54t55 -75v121h363v-1016h-359v127q-20 -41 -57 -75t-85 -55.5t-107.5 -27.5t-122.5 6q-20 4 -40 9.5t-40 15.5q-102 41 -174 139.5t-97 251.5q-20 121 -1.5 228.5zM371 1296 q0 37 15 71t45 59.5t71 41t90 15.5q90 0 160 -60q31 -25 45 -58.5t14 -68t-14.5 -69.5t-44.5 -60q-70 -57 -162 -57q-49 0 -89 15.5t-70 42t-45 59t-15 69.5zM395 502q2 -98 47 -157.5t121 -74.5q20 -4 41 -3t43 5q61 16 99 62.5t49 126.5q8 55 -1.5 106t-31.5 86 q-27 43 -66 66.5t-82 28t-86 -11t-73 -52.5q-29 -33 -45.5 -78t-14.5 -104zM514 1296q0 -33 23 -55q23 -23 54.5 -22.5t53.5 22.5q23 23 23 55.5t-23 55.5t-54.5 22.5t-53.5 -22.5q-23 -23 -23 -56z" />
<glyph unicode="&#xe6;" horiz-adv-x="1798" d="M47.5 371.5q11.5 74.5 55.5 135t119 102.5t179 59q72 10 136 4q70 -4 108.5 -17.5t69.5 -36.5l-6 19q-18 47 -55.5 83t-92.5 55.5t-128 19.5t-165 -25l-43 -12l-94 219q111 49 231 61q190 23 319.5 -25t190.5 -134q20 39 57.5 69.5t102.5 61.5q43 18 93.5 27.5t113.5 6.5 q113 -2 205 -38.5t158.5 -105.5t105.5 -167t45 -221q2 -23 1 -46.5t-3 -45.5h-719q2 -8 3 -14.5t3 -14.5q12 -59 40 -93t73 -52q43 -16 85 -15.5t77 17t60.5 45.5t35.5 65l322 -61q-27 -76 -82 -143q-72 -88 -175.5 -135.5t-240.5 -51.5q-135 -2 -229.5 39t-151.5 117 q-25 -31 -60.5 -56.5t-101.5 -56.5q-27 -10 -55.5 -19t-56.5 -14q-98 -18 -184.5 -5.5t-154 46t-113.5 85t-65 112.5q-25 82 -13.5 156.5zM362 334q4 -49 40 -82t108 -39h30.5t30.5 4q45 10 70 24.5t41 32.5q47 63 31.5 112.5t-78.5 72.5q-25 10 -62 12q-106 10 -160.5 -32 t-50.5 -105zM1034 618h381v23q-8 98 -72.5 147.5t-162.5 26.5q-53 -14 -91 -56t-51 -110q-2 -8 -2 -15t-2 -16z" />
<glyph unicode="&#xe7;" horiz-adv-x="937" d="M47 498q-2 143 57.5 259.5t161 189.5t237.5 93.5t288 -26.5q74 -23 133 -56l-119 -266q-16 8 -33.5 15.5t-38.5 13.5q-68 20 -127 11t-103 -41t-67.5 -82t-21.5 -111t29.5 -108.5t71.5 -76t101.5 -35t118.5 16.5q37 12 68 37l137 -226q-59 -49 -128 -80.5t-142 -45.5 q-127 -23 -240 5.5t-198 98.5t-134 176.5t-51 237.5zM307 -356l115 303l258 -25l-160 -301z" />
<glyph unicode="&#xe8;" horiz-adv-x="1167" d="M49.5 415q-18.5 130 30.5 273q49 139 149.5 228.5t235.5 117.5q137 27 253 2.5t203 -93.5t139 -178.5t62 -252.5q4 -51 -2 -92h-725q0 -10 4 -31q12 -57 43 -94t76 -57q59 -27 125 -12.5t119 71.5q12 14 22.5 28.5t18.5 30.5l291 -104q-29 -66 -84.5 -123t-137.5 -100 q-59 -31 -125.5 -46.5t-152.5 -15.5q-147 0 -265 59.5t-189.5 159t-90 229.5zM283 1438l290 139l187 -360l-223 -109zM393 614h383q0 20 -2 31q-16 90 -78.5 134t-146.5 26q-18 -4 -37 -12q-41 -18 -70.5 -55.5t-42.5 -88.5q-2 -8 -3 -16t-3 -19z" />
<glyph unicode="&#xe9;" horiz-adv-x="1167" d="M49.5 415q-18.5 130 30.5 273q49 139 149.5 228.5t235.5 117.5q137 27 253 2.5t203 -93.5t139 -178.5t62 -252.5q4 -51 -2 -92h-725q0 -10 4 -31q12 -57 43 -94t76 -57q59 -27 125 -12.5t119 71.5q12 14 22.5 28.5t18.5 30.5l291 -104q-29 -66 -84.5 -123t-137.5 -100 q-59 -31 -125.5 -46.5t-152.5 -15.5q-147 0 -265 59.5t-189.5 159t-90 229.5zM393 614h383q0 20 -2 31q-16 90 -78.5 134t-146.5 26q-18 -4 -37 -12q-41 -18 -70.5 -55.5t-42.5 -88.5q-2 -8 -3 -16t-3 -19zM410 1217l186 364l289 -139l-256 -332z" />
<glyph unicode="&#xea;" horiz-adv-x="1167" d="M49.5 415q-18.5 130 30.5 273q49 139 149.5 228.5t235.5 117.5q137 27 253 2.5t203 -93.5t139 -178.5t62 -252.5q4 -51 -2 -92h-725q0 -10 4 -31q12 -57 43 -94t76 -57q59 -27 125 -12.5t119 71.5q12 14 22.5 28.5t18.5 30.5l291 -104q-29 -66 -84.5 -123t-137.5 -100 q-59 -31 -125.5 -46.5t-152.5 -15.5q-147 0 -265 59.5t-189.5 159t-90 229.5zM186 1290l400 260l397 -260l-90 -184l-307 135l-312 -133zM393 614h383q0 20 -2 31q-16 90 -78.5 134t-146.5 26q-18 -4 -37 -12q-41 -18 -70.5 -55.5t-42.5 -88.5q-2 -8 -3 -16t-3 -19z" />
<glyph unicode="&#xeb;" horiz-adv-x="1167" d="M49.5 415q-18.5 130 30.5 273q49 139 149.5 228.5t235.5 117.5q137 27 253 2.5t203 -93.5t139 -178.5t62 -252.5q4 -51 -2 -92h-725q0 -10 4 -31q12 -57 43 -94t76 -57q59 -27 125 -12.5t119 71.5q12 14 22.5 28.5t18.5 30.5l291 -104q-29 -66 -84.5 -123t-137.5 -100 q-59 -31 -125.5 -46.5t-152.5 -15.5q-147 0 -265 59.5t-189.5 159t-90 229.5zM152 1294q0 76 55 131q27 27 60.5 40.5t69.5 13.5t68.5 -14.5t59.5 -41.5t40 -60.5t13 -69.5t-13 -69.5t-40 -60.5t-60.5 -40t-69.5 -13t-70 13.5t-60 39.5q-53 53 -53 131zM393 614h383 q0 20 -2 31q-16 90 -78.5 134t-146.5 26q-18 -4 -37 -12q-41 -18 -70.5 -55.5t-42.5 -88.5q-2 -8 -3 -16t-3 -19zM651 1294q0 76 54 129q27 27 59.5 41.5t68 14.5t69.5 -13.5t61 -40.5t41 -61.5t14 -69t-13.5 -69.5t-39.5 -62q-27 -27 -61 -40t-69.5 -13t-69.5 13.5 t-60 39.5q-54 53 -54 131z" />
<glyph unicode="&#xec;" horiz-adv-x="464" d="M-70 1438l291 139l187 -360l-224 -109zM53 0v1016h365v-1016h-365z" />
<glyph unicode="&#xed;" horiz-adv-x="464" d="M53 0v1016h365v-1016h-365zM57 1217l187 364l288 -139l-256 -332z" />
<glyph unicode="&#xee;" horiz-adv-x="464" d="M-166 1290l399 260l398 -260l-90 -184l-308 135l-311 -133zM53 0v1016h365v-1016h-365z" />
<glyph unicode="&#xef;" horiz-adv-x="464" d="M-201 1294q0 76 56 131q27 27 60.5 40.5t69 13.5t68.5 -14.5t60 -41.5t40 -60.5t13 -69.5t-13.5 -69.5t-39.5 -60.5q-27 -27 -61 -40t-69.5 -13t-69.5 13.5t-60 39.5q-54 53 -54 131zM53 0v1016h365v-1016h-365zM299 1294q0 76 53 129q27 27 59.5 41.5t68.5 14.5 t70 -13.5t60 -40.5q27 -27 41.5 -61.5t14.5 -69t-13.5 -69.5t-40.5 -62t-60.5 -40t-69.5 -13t-69.5 13.5t-60.5 39.5q-53 53 -53 131z" />
<glyph unicode="&#xf1;" horiz-adv-x="1163" d="M82 0v1016h364v-142l11 17l14 18q31 41 66.5 69t89.5 44q104 37 188 26.5t143.5 -59.5t91 -135t31.5 -203v-651h-364v553q0 111 -45 159t-119 25l-31 -12q-37 -23 -56.5 -68t-19.5 -131v-526h-364zM221 1116v230q10 4 18.5 7t18.5 7q59 20 112.5 22t131.5 -10l12 -4 l84 -16q10 -4 18.5 -5t18.5 -4q104 -16 174 -8t133 41v-231q-8 -2 -14 -4t-15 -4q-66 -18 -120 -21.5t-117 6.5l-47 11l-43 8l-45 8l-56 10q-106 14 -184 -8q-39 -12 -80 -35z" />
<glyph unicode="&#xf2;" horiz-adv-x="1196" d="M47 508q0 129 49 234.5t135 178t203 104.5t254 13q104 -14 189.5 -59t145.5 -114.5t93 -161t33 -197.5q0 -117 -40 -216.5t-112.5 -171t-174 -111.5t-224.5 -40t-224.5 40t-174 113t-112.5 172t-40 216zM297 1438l291 139l186 -360l-223 -109zM389 508q0 -70 25.5 -122 t70.5 -81q53 -35 112.5 -35t113.5 35q53 35 79.5 100.5t12.5 151.5q-14 100 -92 152q-53 35 -112.5 34.5t-113.5 -34.5q-45 -29 -70.5 -80t-25.5 -121z" />
<glyph unicode="&#xf3;" horiz-adv-x="1196" d="M47 508q0 129 49 234.5t135 178t203 104.5t254 13q104 -14 189.5 -59t145.5 -114.5t93 -161t33 -197.5q0 -117 -40 -216.5t-112.5 -171t-174 -111.5t-224.5 -40t-224.5 40t-174 113t-112.5 172t-40 216zM389 508q0 -70 25.5 -122t70.5 -81q53 -35 112.5 -35t113.5 35 q53 35 79.5 100.5t12.5 151.5q-14 100 -92 152q-53 35 -112.5 34.5t-113.5 -34.5q-45 -29 -70.5 -80t-25.5 -121zM424 1217l186 364l289 -139l-256 -332z" />
<glyph unicode="&#xf4;" horiz-adv-x="1196" d="M47 508q0 129 49 234.5t135 178t203 104.5t254 13q104 -14 189.5 -59t145.5 -114.5t93 -161t33 -197.5q0 -117 -40 -216.5t-112.5 -171t-174 -111.5t-224.5 -40t-224.5 40t-174 113t-112.5 172t-40 216zM201 1290l399 260l397 -260l-90 -184l-307 135l-311 -133zM389 508 q0 -70 25.5 -122t70.5 -81q53 -35 112.5 -35t113.5 35q53 35 79.5 100.5t12.5 151.5q-14 100 -92 152q-53 35 -112.5 34.5t-113.5 -34.5q-45 -29 -70.5 -80t-25.5 -121z" />
<glyph unicode="&#xf5;" horiz-adv-x="1196" d="M47 508q0 129 49 234.5t135 178t203 104.5t254 13q104 -14 189.5 -59t145.5 -114.5t93 -161t33 -197.5q0 -117 -40 -216.5t-112.5 -171t-174 -111.5t-224.5 -40t-224.5 40t-174 113t-112.5 172t-40 216zM238 1116v230q10 4 18 7t18 7q59 20 112.5 22t131.5 -10l12 -4 l84 -16q10 -4 18.5 -5t18.5 -4q104 -16 174 -8t133 41v-231q-8 -2 -14 -4t-14 -4q-66 -18 -120 -21.5t-118 6.5l-47 11l-43 8l-45 8l-55 10q-106 14 -185 -8q-39 -12 -79 -35zM389 508q0 -70 25.5 -122t70.5 -81q53 -35 112.5 -35t113.5 35q53 35 79.5 100.5t12.5 151.5 q-14 100 -92 152q-53 35 -112.5 34.5t-113.5 -34.5q-45 -29 -70.5 -80t-25.5 -121z" />
<glyph unicode="&#xf6;" horiz-adv-x="1196" d="M47 508q0 117 41 216t113.5 171t174 112t222.5 40q139 0 251 -52.5t185.5 -143.5t102 -212t0.5 -258q-18 -92 -66.5 -169t-118 -131t-160 -84t-194.5 -30q-123 0 -224.5 40t-174 111.5t-112.5 171t-40 218.5zM172 1288q-2 37 12.5 72t40.5 61q27 27 60.5 40.5t69.5 13.5 t70 -14.5t60 -41.5q27 -29 40.5 -62.5t13.5 -68.5t-14.5 -68.5t-41.5 -60.5t-60.5 -40t-68.5 -13t-68.5 13.5t-60.5 39.5q-53 53 -53 129zM389 506q0 -70 25.5 -121t70.5 -80q53 -35 112.5 -35t113.5 35q45 29 70.5 80t25.5 121q0 72 -25.5 123t-70.5 80q-53 35 -112.5 34.5 t-113.5 -34.5q-45 -29 -70.5 -81t-25.5 -122zM659 1288q-2 37 12.5 71t39.5 60q27 27 60.5 41.5t69.5 14.5t69.5 -13.5t60.5 -40.5q27 -29 40 -62.5t13 -69.5t-13.5 -69.5t-39.5 -60.5q-27 -27 -60.5 -40t-68.5 -13t-68 13.5t-59 39.5q-56 51 -56 129z" />
<glyph unicode="&#xf8;" horiz-adv-x="1206" d="M47 27l127 127q-80 88 -110.5 211.5t-0.5 275.5q20 102 77 184t139.5 137.5t188 78t226.5 6.5q150 -18 273 -119l127 116l65 -75l-119 -111q74 -102 99 -221q31 -154 -5 -286t-123 -224t-217 -137t-286 -23q-147 23 -264 111l-121 -119zM399 479q2 -41 19 -88l317 309 q-33 29 -76 39.5t-94 -0.5q-82 -14 -127 -80.5t-39 -179.5zM481 311q47 -41 109.5 -44t124.5 36q51 33 76.5 94.5t15.5 149.5l-6 37l-4 14l-4 16z" />
<glyph unicode="&#xf9;" horiz-adv-x="1167" d="M82 451v565h364v-541q0 -84 26 -121t85 -47q25 -6 51 0q59 10 85 47t26 121v541h366v-565q0 -211 -100 -330t-315 -148q-88 -10 -174 0q-213 29 -313.5 148t-100.5 330zM283 1438l290 139l187 -360l-223 -109z" />
<glyph unicode="&#xfa;" horiz-adv-x="1167" d="M82 451v565h364v-541q0 -84 26 -121t85 -47q25 -6 51 0q59 10 85 47t26 121v541h366v-565q0 -211 -100 -330t-315 -148q-88 -10 -174 0q-213 29 -313.5 148t-100.5 330zM410 1217l186 364l289 -139l-256 -332z" />
<glyph unicode="&#xfb;" horiz-adv-x="1167" d="M82 451v565h364v-541q0 -84 26 -121t85 -47q25 -6 51 0q59 10 85 47t26 121v541h366v-565q0 -211 -100 -330t-315 -148q-88 -10 -174 0q-213 29 -313.5 148t-100.5 330zM186 1290l400 260l397 -260l-90 -184l-307 135l-312 -133z" />
<glyph unicode="&#xfc;" horiz-adv-x="1167" d="M82 451v565h364v-541q0 -84 26 -121t85 -47q25 -6 51 0q59 10 85 47t26 121v541h366v-565q0 -211 -100 -330t-315 -148q-88 -10 -174 0q-213 29 -313.5 148t-100.5 330zM152 1288q-2 39 12 73t41 60q27 27 60.5 40.5t69.5 13.5t69.5 -14.5t60.5 -41.5t39 -60.5t12 -68.5 t-13.5 -69.5t-39.5 -61.5q-27 -27 -59.5 -40t-68.5 -13t-70 13.5t-60 39.5q-53 53 -53 129zM649 1290q0 78 53 131q27 27 60 40.5t68.5 13.5t69.5 -13.5t61 -40.5t40 -61.5t13 -69.5t-13.5 -69.5t-39.5 -61.5q-27 -27 -61 -40t-68.5 -13t-68.5 13.5t-61 39.5 q-25 27 -39 60.5t-14 70.5z" />
<glyph unicode="&#xff;" horiz-adv-x="991" d="M-55 1016h381l133 -379q6 -16 12 -41t12 -66q4 -27 8.5 -54t6.5 -54q2 29 6 54.5t10 53.5q14 63 27 101l135 385h385l-455 -1094q-41 -102 -85 -169.5t-98 -106.5t-120.5 -52.5t-152.5 -7.5q-63 6 -130 29l46 297l18 -6q78 -25 124 -0.5t79 110.5l18 50l6 16zM63 1294 q0 76 56 131q27 27 60.5 40.5t69.5 13.5t68.5 -14.5t59.5 -41.5t40 -60.5t13 -69.5t-13.5 -69.5t-39.5 -60.5q-27 -27 -60.5 -40t-69.5 -13t-70 13.5t-60 39.5q-54 53 -54 131zM563 1294q0 76 53 129q27 27 60 41.5t68.5 14.5t69.5 -13.5t60 -40.5q27 -27 41.5 -61.5 t14.5 -69t-13.5 -69.5t-39.5 -62q-27 -27 -61 -40t-69.5 -13t-69.5 13.5t-61 39.5q-53 53 -53 131z" />
<glyph unicode="&#x152;" horiz-adv-x="2113" d="M57 877q20 121 70.5 223t124.5 182t168 132t203 75q184 37 325.5 1t218.5 -114v99h871v-308h-494v-254h428v-295h-428v-311h510v-307h-887v121q-70 -86 -201.5 -128t-314.5 -13q-145 23 -267 103.5t-203 201.5t-115.5 273.5t-8.5 318.5zM434 729q2 -43 12 -86 q29 -129 111 -206t201 -93q84 -12 157.5 6.5t129 58.5t89 98t37.5 126q8 125 -3 213t-43.5 148.5t-90 94t-141.5 50.5q-84 16 -159 -0.5t-135 -60.5t-102 -111.5t-57 -153.5q-6 -43 -6 -84z" />
<glyph unicode="&#x153;" horiz-adv-x="1914" d="M55 606q31 170 141.5 281.5t280.5 146.5q168 33 297 -12t199 -141q29 47 77 83.5t111.5 58t141 25t165.5 -17.5q178 -41 281.5 -169t120.5 -341q2 -29 2 -55.5t-4 -54.5h-719q2 -4 2 -10.5t2 -10.5q27 -113 117 -145q45 -16 88 -14.5t77.5 18t59.5 46.5t31 66l319 -63 q-31 -90 -96 -162q-72 -82 -176.5 -126t-237.5 -42q-119 0 -203.5 33t-136.5 88q-8 10 -15 20.5t-15 20.5q-12 -16 -21 -23q-80 -88 -192.5 -121.5t-270.5 -4.5q-111 18 -198.5 74.5t-145 140.5t-80 189t-2.5 222zM397 487.5q0 -8.5 2 -18.5q12 -80 52.5 -124t107.5 -60 q45 -10 90 2q139 29 158 192q4 45 -2 80q-20 150 -156 178q-100 20 -166.5 -31t-83.5 -157q-2 -10 -2 -21.5v-21.5v-18.5zM1151 608h373v16.5t-2 16.5q-12 96 -71.5 140t-154.5 24q-111 -25 -141 -162q-2 -10 -3 -17.5t-1 -17.5z" />
<glyph unicode="&#x178;" horiz-adv-x="1144" d="M-70 1475h420l176 -375q12 -27 23.5 -70t19.5 -115q2 -10 3 -22t1 -23q4 57 13 109q10 49 17 76.5t18 44.5l174 375h419l-456 -828v-647h-373v647zM139 1753q0 76 56 131q27 27 60.5 40t69 13t68.5 -14t60 -41t40 -60.5t13 -69.5t-13.5 -69.5t-39.5 -60.5 q-27 -27 -61 -40t-69.5 -13t-69.5 13t-60 40q-54 53 -54 131zM639 1753q0 76 53 129q27 27 59.5 41t68.5 14t70 -13t60 -40q27 -27 41.5 -61.5t14.5 -69.5t-13.5 -69.5t-40.5 -61.5t-60.5 -40t-69.5 -13t-69.5 13t-60.5 40q-53 53 -53 131z" />
<glyph unicode="&#x2c6;" horiz-adv-x="804" d="M4 1290l399 260l398 -260l-90 -184l-308 135l-311 -133z" />
<glyph unicode="&#x2dc;" horiz-adv-x="729" d="M4 1116v230q10 4 18.5 7t18.5 7q59 20 112.5 22t131.5 -10l12 -4l84 -16q10 -4 18.5 -5t18.5 -4q104 -16 174 -8t133 41v-231q-8 -2 -14 -4t-15 -4q-66 -18 -120 -21.5t-117 6.5l-47 11l-43 8l-45 8l-56 10q-106 14 -184 -8q-39 -12 -80 -35z" />
<glyph unicode="&#x2000;" horiz-adv-x="1020" />
<glyph unicode="&#x2001;" horiz-adv-x="2040" />
<glyph unicode="&#x2002;" horiz-adv-x="1020" />
<glyph unicode="&#x2003;" horiz-adv-x="2040" />
<glyph unicode="&#x2004;" horiz-adv-x="680" />
<glyph unicode="&#x2005;" horiz-adv-x="510" />
<glyph unicode="&#x2006;" horiz-adv-x="340" />
<glyph unicode="&#x2007;" horiz-adv-x="340" />
<glyph unicode="&#x2008;" horiz-adv-x="255" />
<glyph unicode="&#x2009;" horiz-adv-x="408" />
<glyph unicode="&#x200a;" horiz-adv-x="113" />
<glyph unicode="&#x2010;" horiz-adv-x="669" d="M57 328v340h555v-340h-555z" />
<glyph unicode="&#x2011;" horiz-adv-x="669" d="M57 328v340h555v-340h-555z" />
<glyph unicode="&#x2012;" horiz-adv-x="669" d="M57 328v340h555v-340h-555z" />
<glyph unicode="&#x2013;" d="M141 586v295h1016v-295h-1016z" />
<glyph unicode="&#x2014;" horiz-adv-x="1048" d="M41 420v309h967v-309h-967z" />
<glyph unicode="&#x2018;" horiz-adv-x="509" d="M18 850l211 661l240 -34l-96 -678z" />
<glyph unicode="&#x2019;" horiz-adv-x="512" d="M18 848l97 678l356 -51l-213 -662z" />
<glyph unicode="&#x201a;" horiz-adv-x="514" d="M18 -289l97 678l356 -51l-213 -662z" />
<glyph unicode="&#x201c;" horiz-adv-x="958" d="M18 850l211 661l240 -34l-96 -678zM465 850l211 661l242 -34l-99 -678z" />
<glyph unicode="&#x201d;" horiz-adv-x="958" d="M18 848l97 678l356 -51l-213 -662zM465 848l98 678l355 -51l-213 -662z" />
<glyph unicode="&#x201e;" horiz-adv-x="960" d="M18 -289l97 678l356 -51l-213 -662zM465 -289l98 678l357 -51l-213 -662z" />
<glyph unicode="&#x2022;" horiz-adv-x="718" d="M70 737q0 59 21.5 111.5t62.5 93.5q43 43 96 63.5t109.5 20.5t109.5 -20.5t96 -63.5t63.5 -96t20.5 -108.5t-20.5 -109t-63.5 -96.5t-96 -63t-109.5 -20t-109.5 20t-96 63q-84 84 -84 205z" />
<glyph unicode="&#x2026;" horiz-adv-x="1636" d="M76 170q0 82 57 139.5t139 57.5t140 -58q29 -29 43 -65.5t14 -74.5t-14.5 -74t-42.5 -64q-57 -57 -140 -58q-82 0 -139 57.5t-57 139.5zM621 170q0 82 57 139.5t139 57.5t139 -58q29 -29 43.5 -65.5t14.5 -74.5t-14.5 -74t-43.5 -64q-57 -57 -139 -58q-82 0 -139 57.5 t-57 139.5zM1167 170q0 82 57.5 139.5t139.5 57.5t139.5 -57.5t57.5 -139.5t-57.5 -139.5t-139.5 -57.5t-139.5 57.5t-57.5 139.5z" />
<glyph unicode="&#x202f;" horiz-adv-x="408" />
<glyph unicode="&#x2039;" horiz-adv-x="833" d="M57 508l539 510l180 -184l-352 -324l352 -328l-180 -186z" />
<glyph unicode="&#x203a;" horiz-adv-x="829" d="M57 184l351 326l-351 326l179 184l536 -514l-539 -508z" />
<glyph unicode="&#x205f;" horiz-adv-x="510" />
<glyph unicode="&#x2122;" horiz-adv-x="1454" d="M70 1346v129h452v-129h-155v-609h-146v609h-151zM496 737l127 742h127l151 -385q23 -53 30 -89t9 -79q2 43 10 78.5t29 89.5l151 385h127l127 -742h-139l-65 402q-4 18 -5 43.5t-1 52.5v23.5t2 21.5q-4 -23 -9.5 -43t-15.5 -49l-10 -33l-4 -16l-158 -406h-78l-156 408 l-4 10l-12 39q-8 23 -13 45t-11 45q2 -10 2 -21.5v-21.5q0 -29 -1 -55.5t-6 -42.5l-63 -402h-141z" />
<glyph unicode="&#x25fc;" horiz-adv-x="1013" d="M0 0v1014h1014v-1014h-1014z" />
<glyph unicode="&#xfb01;" d="M170 500l254 254l-250 250l209 208l250 -249l254 254l241 -244l-251 -252l247 -250l-209 -209l-247 248l-254 -252z" />
<glyph unicode="&#xfb02;" horiz-adv-x="948" d="M76 0v324h225v833h-221v318h582v-1162l221 11v-324h-807z" />
</font>
</defs>
</svg>
